<svg id="Component_5_37" data-name="Component 5 – 37" xmlns="http://www.w3.org/2000/svg" width="45.001" height="45.001" viewBox="0 0 45.001 45.001">
  <path id="Path_6730" data-name="Path 6730" d="M461.163,26.738l3.7-3.738-3.738-3.738,2.032-4.863L458.3,12.367V7.1H453l-2-4.9-4.9,2.032L442.364.5l-3.7,3.738-4.9-2.032-2,4.9h-5.3v5.262L421.606,14.4l2.032,4.863L419.9,23l3.7,3.738-2,4.863,4.863,2.032V38.9h5.3l2,4.9,4.9-2.032,3.7,3.738,3.738-3.738,4.9,2.032,2-4.9h5.3V33.634l4.863-2.032Z" transform="translate(-419.9 -0.5)" fill="#0b1617" opacity="0.1"/>
  <path id="Path_6731" data-name="Path 6731" d="M690.968,25.033l2-2.032-2-2.032,1.561-2.359-2.359-1.6,1.089-2.613-2.649-1.089.581-2.794L686.4,9.936V7.1h-2.867l-.544-2.794-2.794.544L679.1,2.206l-2.649,1.089-1.6-2.359-2.359,1.6L670.464.5l-2,2.032-2.4-1.6-1.56,2.359-2.649-1.089-1.089,2.649-2.794-.544L657.436,7.1h-2.867V9.936l-2.794.581.544,2.794L649.706,14.4l1.089,2.613-2.4,1.6,1.6,2.359L648,23l2,2.032-1.6,2.359,2.4,1.6L649.706,31.6l2.613,1.089-.544,2.794,2.794.581V38.9h2.867l.544,2.794,2.794-.544,1.089,2.649,2.649-1.089,1.56,2.359,2.4-1.6,2,2.032,2.032-2.032,2.359,1.6,1.6-2.359,2.649,1.089,1.089-2.649,2.794.544.544-2.794H686.4V36.065l2.794-.581-.581-2.794,2.649-1.089-1.089-2.613,2.359-1.6Z" transform="translate(-648 -0.5)" fill="#0b1617" opacity="0.1"/>
  <path id="Path_6732" data-name="Path 6732" d="M230.2,29.605l6.569-6.6L230.2,16.4V7.1h-9.327L214.3.5l-6.6,6.6h-9.327V16.4L191.8,23l6.569,6.6V38.9H207.7l6.6,6.6,6.569-6.6H230.2Z" transform="translate(-191.8 -0.5)" fill="#0b1617" opacity="0.1"/>
  <rect id="Rectangle_4272" data-name="Rectangle 4272" width="31.827" height="31.827" transform="translate(7 6.605)" fill="#0b1617" opacity="0.1"/>
  <g id="Group_7792" data-name="Group 7792" transform="translate(0)">
    <path id="Path_4" data-name="Path 4" d="M898.4,45.5A22.5,22.5,0,1,0,875.9,23a22.52,22.52,0,0,0,22.5,22.5Z" transform="translate(-875.9 -0.5)" fill="#0b1617"/>
    <g id="Group_7792-2" data-name="Group 7792">
      <path id="Path_5" data-name="Path 5" d="M973.488,37.476A1.488,1.488,0,1,0,972,35.988a1.495,1.495,0,0,0,1.488,1.488Z" transform="translate(-937.125 -22.161)" fill="#fff"/>
      <path id="Path_6" data-name="Path 6" d="M897.628,35.1h-3.375a.577.577,0,0,0-.653.653v1.27a.577.577,0,0,0,.653.653h2.1V54.37a.669.669,0,0,0,.181.435.585.585,0,0,0,.472.218h1.27a.77.77,0,0,0,.653-.653v-18a1.179,1.179,0,0,0-.4-.907,1.2,1.2,0,0,0-.907-.363Zm11.54,6.641h1.27a.577.577,0,0,0,.653-.653V39.709a4.106,4.106,0,0,0-.363-1.778,4.556,4.556,0,0,0-1.016-1.452,5,5,0,0,0-1.452-1.016,4.217,4.217,0,0,0-1.778-.363,4.106,4.106,0,0,0-1.778.363,4.557,4.557,0,0,0-1.452,1.016,5,5,0,0,0-1.016,1.452,4.219,4.219,0,0,0-.363,1.778,4.413,4.413,0,0,0,.036.762,1.158,1.158,0,0,0,.109.508,1.488,1.488,0,0,0,.29.508c.145.181.327.435.581.762l5.589,7.4.109.218a3.954,3.954,0,0,1,.036.472,2.069,2.069,0,0,1-4.137,0V48.963a.577.577,0,0,0-.653-.653h-1.27a.577.577,0,0,0-.653.653v1.379a4.105,4.105,0,0,0,.363,1.778,4.557,4.557,0,0,0,1.016,1.452,5,5,0,0,0,1.452,1.016,4.217,4.217,0,0,0,1.778.363,4.105,4.105,0,0,0,1.778-.363,4.555,4.555,0,0,0,1.452-1.016,5,5,0,0,0,1.016-1.452,4.216,4.216,0,0,0,.363-1.778,4.435,4.435,0,0,0-.036-.762,1.158,1.158,0,0,0-.109-.508,1.489,1.489,0,0,0-.29-.508c-.145-.181-.327-.435-.581-.762l-5.589-7.4-.109-.218a3.941,3.941,0,0,1-.036-.472,2.069,2.069,0,0,1,4.137,0v1.379q.054.653.653.653ZM919.294,35.1h-6.206a.577.577,0,0,0-.653.653v1.27a.577.577,0,0,0,.653.653H914.9V54.37a.67.67,0,0,0,.181.435.585.585,0,0,0,.472.218h1.27a.639.639,0,0,0,.472-.218.754.754,0,0,0,.182-.435V37.677h1.814a.577.577,0,0,0,.653-.653v-1.27q-.054-.653-.653-.653Zm5.553,5.044a.639.639,0,0,0-.218-.472.754.754,0,0,0-.435-.181h-1.27a.577.577,0,0,0-.653.653V54.37a.577.577,0,0,0,.653.653h1.27a.577.577,0,0,0,.653-.653V40.144Z" transform="translate(-887.177 -22.543)" fill="#fff"/>
    </g>
  </g>
</svg>
