<svg xmlns="http://www.w3.org/2000/svg" width="83.905" height="74.949" viewBox="0 0 83.905 74.949">
  <g id="Group_10284" data-name="Group 10284" transform="translate(-525.83 -880.805)">
    <g id="Group_10270" data-name="Group 10270" transform="translate(525.83 880.805)">
      <path id="uuid-fb20b2b5-bc5b-4117-a1ee-c5d1a8aa62bd" d="M170.551,47.427c.34-.859,1.073-1.369,1.637-1.139s.746,1.114.406,1.973a2.221,2.221,0,0,1-.626.894l-1.489,3.62L168.74,52l1.652-3.487a2.255,2.255,0,0,1,.158-1.086h0Z" transform="translate(-147.877 -40.517)" fill="#a0616a"/>
      <path id="Path_3985" data-name="Path 3985" d="M116.412,90.736s-2.5-1.209-2.323-2.077S121.7,69.28,121.7,69.28l3.443,2.263-8.73,19.2Z" transform="translate(-99.976 -60.714)" fill="#e6e6e6"/>
      <path id="Path_3986" data-name="Path 3986" d="M221.876,74.949H198a6.305,6.305,0,0,1-6.3-6.3V6.3A6.305,6.305,0,0,1,198,0h23.877a6.305,6.305,0,0,1,6.3,6.3V68.651A6.305,6.305,0,0,1,221.876,74.949Z" transform="translate(-167.998)" fill="#08205e"/>
      <path id="Path_3987" data-name="Path 3987" d="M233.364,84.462H209.452A4.668,4.668,0,0,1,204.79,79.8V17.462a4.668,4.668,0,0,1,4.662-4.662h23.912a4.668,4.668,0,0,1,4.662,4.662V79.8A4.668,4.668,0,0,1,233.364,84.462Z" transform="translate(-179.47 -11.217)" fill="#86b3ff"/>
      <path id="Path_3988" data-name="Path 3988" d="M307.15,23.417h-6.762a1.618,1.618,0,0,1,0-3.237h6.762a1.618,1.618,0,0,1,0,3.237Z" transform="translate(-261.83 -17.685)" fill="#d7d7d8"/>
      <rect id="Rectangle_6637" data-name="Rectangle 6637" width="26.307" height="3.703" rx="1.852" transform="translate(28.786 24.949)" fill="#1d4d9d"/>
      <rect id="Rectangle_6638" data-name="Rectangle 6638" width="8.124" height="0.645" rx="0.323" transform="translate(29.332 21.872)" fill="#1d4d9d"/>
      <rect id="Rectangle_6639" data-name="Rectangle 6639" width="26.307" height="3.703" rx="1.852" transform="translate(28.786 37.485)" fill="#d7d7d8"/>
      <rect id="Rectangle_6640" data-name="Rectangle 6640" width="8.124" height="0.645" rx="0.323" transform="translate(29.332 34.407)" fill="#d7d7d8"/>
      <rect id="Rectangle_6641" data-name="Rectangle 6641" width="26.307" height="3.703" rx="1.852" transform="translate(28.786 50.02)" fill="#d7d7d8"/>
      <rect id="Rectangle_6642" data-name="Rectangle 6642" width="8.124" height="0.645" rx="0.323" transform="translate(29.332 46.942)" fill="#d7d7d8"/>
      <path id="Path_3989" data-name="Path 3989" d="M517.852,122.922s-2.549.288-2.714,4.235c-.137,3.289-.417,5.122.921,5.809a2.023,2.023,0,0,0,1.552.1l5.462-1.8s.083-5.921-1.809-7.359A4.078,4.078,0,0,0,517.852,122.922Z" transform="translate(-451.34 -107.665)" fill="#2f2e41"/>
      <path id="Path_3990" data-name="Path 3990" d="M542.715,175.02l-2.765.909V171.95h2.507Z" transform="translate(-473.191 -150.69)" fill="#ffb6b6"/>
      <path id="uuid-e639489a-d12b-4c23-97cb-2af79ea40b7d" d="M478.322,342.332c-.15.911-.758,1.565-1.358,1.46s-.966-.93-.815-1.842a2.217,2.217,0,0,1,.422-1.006l.685-3.854,1.865.391-.874,3.757a2.255,2.255,0,0,1,.075,1.094Z" transform="translate(-417.248 -295.412)" fill="#ffb6b6"/>
      <path id="uuid-56df27a3-bbb6-4bd2-b7f5-888148e3fe66" d="M595.58,341.75c.184.905-.153,1.732-.752,1.847s-1.233-.527-1.416-1.432a2.246,2.246,0,0,1,.036-1.091l-.728-3.846,1.882-.3.518,3.823a2.272,2.272,0,0,1,.46,1Z" transform="translate(-519.436 -295.272)" fill="#ffb6b6"/>
      <rect id="Rectangle_6643" data-name="Rectangle 6643" width="2.589" height="3.673" transform="translate(65.895 68.876)" fill="#ffb6b6"/>
      <path id="Path_3991" data-name="Path 3991" d="M494.663,575.044c-.272,0-.514-.006-.7-.024a3.235,3.235,0,0,1-1.674-.868.469.469,0,0,1-.119-.529h0a.465.465,0,0,1,.3-.268l1.818-.519,2.943-1.986.033.059a5.242,5.242,0,0,1,.4.894.4.4,0,0,1-.028.331.317.317,0,0,1-.136.114,1.348,1.348,0,0,0,.734.251.816.816,0,0,0,.915-.691l0-.026.022-.015c.357-.23.577-.335.653-.313.047.014.126.038.34,2.156a2.177,2.177,0,0,1,.069,1.02c-.11.507-2.326.333-2.77.293-.012,0-1.672.12-2.808.12Z" transform="translate(-431.288 -500.27)" fill="#2f2e41"/>
      <rect id="Rectangle_6644" data-name="Rectangle 6644" width="2.589" height="3.673" transform="translate(73.659 67.361) rotate(-31.95)" fill="#ffb6b6"/>
      <path id="Path_3992" data-name="Path 3992" d="M581.641,555.68a4.644,4.644,0,0,1-.783-.072.471.471,0,0,1-.381-.386h0a.464.464,0,0,1,.115-.388l1.267-1.4,1.447-3.242.059.032a5.238,5.238,0,0,1,.811.548.394.394,0,0,1,.151.3.312.312,0,0,1-.056.169,1.342,1.342,0,0,0,.755-.176.815.815,0,0,0,.411-1.071l-.01-.025.011-.023c.182-.385.312-.59.388-.611.048-.014.127-.035,1.429,1.651a2.169,2.169,0,0,1,.6.828c.174.488-1.8,1.513-2.195,1.714a34.594,34.594,0,0,1-2.924,1.936,2.47,2.47,0,0,1-1.1.221Z" transform="translate(-508.702 -481.41)" fill="#2f2e41"/>
      <path id="Path_3993" data-name="Path 3993" d="M513.277,308.62h-7.249l-.658,6.743,2.878,24.916h3.7l-1.48-14.39,6,12.992,3.289-2.3-4.687-12.129s1.674-10.566.359-13.2S513.277,308.62,513.277,308.62Z" transform="translate(-442.886 -270.462)" fill="#08205e"/>
      <path id="Path_3994" data-name="Path 3994" d="M509.31,206.454H496.73l4.523-14.884h5.016Z" transform="translate(-435.314 -167.884)" fill="#1d4d9d"/>
      <path id="Path_3995" data-name="Path 3995" d="M485.507,191.574s-3.124-.083-3.453.741-4.194,20.393-4.194,20.393h2.549l5.1-21.134Z" transform="translate(-418.777 -167.885)" fill="#1d4d9d"/>
      <path id="Path_3996" data-name="Path 3996" d="M556.15,191.21s2.752-.349,3.081.474,4.194,20.393,4.194,20.393h-2.55Z" transform="translate(-487.388 -167.504)" fill="#1d4d9d"/>
      <ellipse id="Ellipse_3" data-name="Ellipse 3" cx="2.755" cy="2.755" rx="2.755" ry="2.755" transform="translate(64.347 16.852)" fill="#ffb6b6"/>
      <path id="Path_3997" data-name="Path 3997" d="M519.373,131.7s-1.516,6.156.169,9.033l-2.374-.5s-.92-6.737.93-7.962l1.275-.568Z" transform="translate(-453.026 -115.417)" fill="#2f2e41"/>
      <path id="Path_3998" data-name="Path 3998" d="M83.9,602.266a.185.185,0,0,1-.185.185H.185a.185.185,0,1,1,0-.371H83.719A.185.185,0,0,1,83.9,602.266Z" transform="translate(0 -527.639)" fill="#2e2e41"/>
      <path id="Path_3999" data-name="Path 3999" d="M115.1,149.8l3.166,1.041V146.28h-2.873Z" transform="translate(-100.869 -128.194)" fill="#a0616a"/>
      <ellipse id="Ellipse_4" data-name="Ellipse 4" cx="3.155" cy="3.155" rx="3.155" ry="3.155" transform="translate(13.85 13.037)" fill="#a0616a"/>
      <path id="Path_4000" data-name="Path 4000" d="M108.054,100.232l.435.528.786-1.377s1,.052,1-.694.921-.767.921-.767,1.3-2.277-1.4-1.678c0,0-1.874-1.283-2.805-.187,0,0-2.857,1.439-2.04,3.944l1.359,2.583.308-.585s-.187-2.454,1.429-1.771Z" transform="translate(-91.852 -83.793)" fill="#2f2e41"/>
      <rect id="Rectangle_6645" data-name="Rectangle 6645" width="2.589" height="3.673" transform="translate(15.869 72.589) rotate(180)" fill="#a0616a"/>
      <path id="Path_4001" data-name="Path 4001" d="M106.162,575.244c-.443.04-2.658.215-2.77-.293a2.177,2.177,0,0,1,.069-1.02c.213-2.119.292-2.143.34-2.156.075-.022.3.083.653.313l.022.015,0,.026a.814.814,0,0,0,.915.691,1.349,1.349,0,0,0,.734-.251.317.317,0,0,1-.136-.114.4.4,0,0,1-.028-.331,5.151,5.151,0,0,1,.4-.894l.033-.059,2.943,1.986,1.818.519a.468.468,0,0,1,.3.268h0a.469.469,0,0,1-.119.529,3.231,3.231,0,0,1-1.674.868c-.183.017-.425.023-.7.023-1.136,0-2.8-.117-2.808-.12Z" transform="translate(-90.579 -500.551)" fill="#2f2e41"/>
      <path id="Path_4002" data-name="Path 4002" d="M104.19,298.787,97.4,298.44a15.99,15.99,0,0,0,.274,8.059l.158,24.764h3.838l3.618-25.545Z" transform="translate(-85.014 -261.541)" fill="#08205e"/>
      <path id="Path_4003" data-name="Path 4003" d="M94.5,153.628l-3.728-1.978s-4.017,5.87-3.462,9.05,1.543,9.1,1.543,9.1l8.223.347L95.638,158.49,94.5,153.628Z" transform="translate(-76.466 -132.9)" fill="#e6e6e6"/>
      <rect id="Rectangle_6646" data-name="Rectangle 6646" width="2.589" height="3.673" transform="translate(17.711 72.589) rotate(180)" fill="#a0616a"/>
      <path id="Path_4004" data-name="Path 4004" d="M121.062,575.244c-.443.04-2.658.215-2.77-.293a2.177,2.177,0,0,1,.069-1.02c.213-2.119.292-2.143.34-2.156.075-.022.3.083.653.313l.022.015,0,.026a.814.814,0,0,0,.915.691,1.349,1.349,0,0,0,.734-.251.317.317,0,0,1-.136-.114.4.4,0,0,1-.028-.331,5.149,5.149,0,0,1,.4-.894l.033-.059,2.943,1.986,1.818.519a.468.468,0,0,1,.3.268h0a.469.469,0,0,1-.119.529,3.231,3.231,0,0,1-1.674.868c-.183.017-.425.023-.7.023-1.136,0-2.8-.117-2.808-.12Z" transform="translate(-103.636 -500.551)" fill="#2f2e41"/>
      <path id="Path_4005" data-name="Path 4005" d="M105.612,298.787l-8.223-.347a15.99,15.99,0,0,0,.274,8.059l1.59,24.764h3.838l3.618-25.545Z" transform="translate(-85.005 -261.541)" fill="#08205e"/>
      <path id="uuid-e3777ca2-fb97-40f5-b301-a7df89d05aed" d="M167.883,320.616c.3.873.079,1.737-.5,1.931s-1.291-.357-1.594-1.231a2.221,2.221,0,0,1-.109-1.086l-1.233-3.715,1.825-.545,1.023,3.72a2.254,2.254,0,0,1,.587.926h0Z" transform="translate(-144.117 -276.903)" fill="#a0616a"/>
      <path id="Path_4006" data-name="Path 4006" d="M108.54,176.826s2.681-.712,3.117.059,6.871,19.654,6.871,19.654l-4.085.532-5.9-20.245Z" transform="translate(-95.12 -154.701)" fill="#e6e6e6"/>
    </g>
  </g>
</svg>
