<svg xmlns="http://www.w3.org/2000/svg" xmlns:xlink="http://www.w3.org/1999/xlink" width="98.98" height="119.639" viewBox="0 0 98.98 119.639">
  <defs>
    <linearGradient id="linear-gradient" x1="0.5" x2="0.5" y2="1" gradientUnits="objectBoundingBox">
      <stop offset="0" stop-color="#86b3ff"/>
      <stop offset="1" stop-color="#64c6ff"/>
    </linearGradient>
  </defs>
  <g id="Group_10328" data-name="Group 10328" transform="translate(0 0)">
    <g id="Group_10308" data-name="Group 10308" transform="translate(0.13 10.128)">
      <path id="Path_4113" data-name="Path 4113" d="M114.768,37.094H36.693A5.2,5.2,0,0,0,31.5,42.287v53.5a5.2,5.2,0,0,0,5.193,5.193h78.076a5.2,5.2,0,0,0,5.193-5.193v-53.5a5.2,5.2,0,0,0-5.193-5.193Z" transform="translate(-23.029 -37.094)" fill="#f2f2f2"/>
      <path id="Path_4114" data-name="Path 4114" d="M83.744,52.188H5.668A5.2,5.2,0,0,0,.475,57.381v53.5a5.2,5.2,0,0,0,5.193,5.193H83.744a5.2,5.2,0,0,0,5.193-5.193v-53.5A5.2,5.2,0,0,0,83.744,52.188Zm4.647,42.949A20.394,20.394,0,0,1,68,115.531H5.668a4.647,4.647,0,0,1-4.647-4.647v-53.5a4.647,4.647,0,0,1,4.647-4.647H83.744a4.647,4.647,0,0,1,4.647,4.647Z" transform="translate(-0.475 -48.067)" fill="url(#linear-gradient)"/>
    </g>
    <g id="Group_10309" data-name="Group 10309" transform="translate(10.82 38.276)">
      <path id="Path_4115" data-name="Path 4115" d="M40.091,239.284l-.462-.291c.3-.477.61-.94.921-1.375l.444.317c-.3.427-.608.88-.9,1.349Z" transform="translate(-39.629 -211.016)" fill="#ccc"/>
      <path id="Path_4116" data-name="Path 4116" d="M51.309,165.827l-.391-.381a15.965,15.965,0,0,1,2.606-2.179l.3.456A15.416,15.416,0,0,0,51.309,165.827Zm13.623-3.447a10.434,10.434,0,0,1-1.691-.156l.088-.539a9.769,9.769,0,0,0,1.6.149,7.393,7.393,0,0,0,1.617-.181l.118.533A7.94,7.94,0,0,1,64.932,162.381Zm-8.171-.072-.164-.521a11.506,11.506,0,0,1,1.806-.412,10.62,10.62,0,0,1,1.536-.113h.034v.546h-.034a10.07,10.07,0,0,0-1.457.107A10.96,10.96,0,0,0,56.761,162.308Zm13.016-1.578-.349-.42a10.959,10.959,0,0,0,1.865-2.184l.228-.319.443.319-.227.317A11.371,11.371,0,0,1,69.777,160.73Zm4.379-5.007-.336-.431a10.026,10.026,0,0,1,2.542-1.423q.249-.1.477-.175l.176.517c-.145.049-.3.1-.453.167A9.484,9.484,0,0,0,74.156,155.724Zm6.592-1.9c-.184,0-.358,0-.525,0l.006-.546.539,0a23.085,23.085,0,0,0,2.765-.16l.063.542A23.961,23.961,0,0,1,80.748,153.827Zm6.17-.715-.108-.535c.981-.2,2.122-.434,3.251-.726l.137.529C89.055,152.674,87.905,152.912,86.918,153.112Zm6.5-1.768-.2-.506a15.372,15.372,0,0,0,2.907-1.522l.306.452A15.907,15.907,0,0,1,93.414,151.344Zm5.517-3.9-.443-.319c.152-.211.284-.418.411-.617a7.04,7.04,0,0,1,1.691-1.945l.065-.052.338.428-.06.048a6.5,6.5,0,0,0-1.574,1.814C99.228,147.006,99.092,147.219,98.931,147.442Zm4.9-4.1-.2-.508a18.172,18.172,0,0,1,3.267-.913l.1.537A17.641,17.641,0,0,0,103.83,143.347Z" transform="translate(-47.836 -141.451)" fill="#ccc"/>
      <path id="Path_4117" data-name="Path 4117" d="M268.452,140.8l-.034-.545c.531-.033,1.085-.055,1.649-.065l.01.546C269.521,140.744,268.975,140.766,268.452,140.8Z" transform="translate(-205.952 -140.188)" fill="#ccc"/>
    </g>
    <g id="Group_10310" data-name="Group 10310" transform="translate(9.011 20.166)">
      <path id="Path_4118" data-name="Path 4118" d="M41.364,73.859H33.7a.7.7,0,0,0,0,1.4h7.661a.7.7,0,0,0,0-1.4Z" transform="translate(-33.003 -73.859)" fill="#e6e6e6"/>
      <path id="Path_4119" data-name="Path 4119" d="M88.364,73.859H80.7a.7.7,0,0,0,0,1.4h7.661a.7.7,0,0,0,0-1.4Z" transform="translate(-67.171 -73.859)" fill="#e6e6e6"/>
      <path id="Path_4120" data-name="Path 4120" d="M135.364,73.859H127.7a.7.7,0,0,0,0,1.4h7.661a.7.7,0,0,0,0-1.4Z" transform="translate(-101.339 -73.859)" fill="#e6e6e6"/>
    </g>
    <rect id="Rectangle_6689" data-name="Rectangle 6689" width="69.623" height="0.546" transform="translate(9.003 66.125)" fill="#e6e6e6"/>
    <path id="Path_4121" data-name="Path 4121" d="M236.681,94.734c-4.956.128-8.652,1.586-10.995,4.328a9.468,9.468,0,0,0-1.589,2.662,11.754,11.754,0,0,1-1.622,2.818v-.928A12.149,12.149,0,0,0,223.6,101.5a9.856,9.856,0,0,1,1.674-2.793c2.446-2.867,6.28-4.388,11.394-4.521Z" transform="translate(-161.733 -68.471)" fill="#ccc"/>
    <path id="Path_4122" data-name="Path 4122" d="M91.12,119.732A11.755,11.755,0,0,1,89.5,122.55q-.156.2-.336.418c-3.162,3.76-7.385,4.994-10.782,5.988-.213.063-.42.12-.623.175a18.725,18.725,0,0,1-5.906.77,5.616,5.616,0,0,0-3.514.8c-2.678,1.526-3.776,3.76-4.838,5.919-1.095,2.222-2.127,4.322-4.759,5.308a6.561,6.561,0,0,1-4.467-.011c-1.166-.309-3.267-7.9-5.127-9.01-3.842.805-6.176,13.359-9.089,20.081l-.5-.218c2.99-6.891,5.452-19.552,9.477-20.4,1.794-.377,4.156,8.693,5.381,9.015a6.088,6.088,0,0,0,4.136.027c2.43-.906,3.369-2.82,4.459-5.035,1.048-2.13,2.236-4.543,5.057-6.154a6.137,6.137,0,0,1,3.8-.871,18.307,18.307,0,0,0,5.9-.789l.47-.134c3.326-.972,7.462-2.182,10.514-5.813a11.76,11.76,0,0,0,.756-1,12.152,12.152,0,0,0,1.122-2.111C91.008,118.627,91.491,118.886,91.12,119.732Z" transform="translate(-28.756 -86.48)" fill="url(#linear-gradient)"/>
    <g id="Group_10311" data-name="Group 10311" transform="translate(23.652 47.842)">
      <path id="Path_4123" data-name="Path 4123" d="M105.487,326.2a4.46,4.46,0,0,0-1.027-1.852l-1.6-7.3-3.49.855,2,7.311a4.425,4.425,0,0,0,.111,2.11c.494,1.719,1.791,2.861,2.9,2.551s1.6-1.956,1.109-3.676Z" transform="translate(-95.891 -278.33)" fill="url(#linear-gradient)"/>
      <path id="Path_4124" data-name="Path 4124" d="M95.741,175.226s-5.511-.113-6.912,3.9c-1.275,3.653-2.787,13.689-1.97,14.268L90.338,218.1l4.961-.682-1.273-29.643,1.715-12.55Z" transform="translate(-86.628 -175.226)" fill="url(#linear-gradient)"/>
    </g>
    <path id="Path_4125" data-name="Path 4125" d="M131.8,340.28l-.977,25.938H117.854L117.33,354.6l-2.3,11.623h-13.9l1.734-19.98,1.791-4.2,1.212-2.848Z" transform="translate(-73.515 -246.579)" fill="#2f2e41"/>
    <path id="Path_4126" data-name="Path 4126" d="M126.041,155.734l-9.01-.546-3,3.822-6.553,2.457,3,29.214-1.365,17.474s19.112,15.29,27.3-1.638l-2.184-20.477.546-23.754-6.28-2.73Z" transform="translate(-78.131 -112.817)" fill="url(#linear-gradient)"/>
    <g id="Group_10312" data-name="Group 10312" transform="translate(50.563 32.606)">
      <path id="Path_4127" data-name="Path 4127" d="M225.649,123.086a5.442,5.442,0,0,1-.312,2.55l1.5,8.959-4.284.589-1.061-9.151a5.441,5.441,0,0,1-.827-2.433c-.223-2.162.711-4.031,2.087-4.173s2.673,1.5,2.9,3.658Z" transform="translate(-210.956 -119.419)" fill="#ffb6b6"/>
      <path id="Path_4128" data-name="Path 4128" d="M192.422,159.018a4.033,4.033,0,0,0-6.781-.341,4.88,4.88,0,0,0-.431,2.3c-.455,3.794,6.816,15.006,11.847,16.3.66.169,1.036.882,1.7,1.025h0a3.065,3.065,0,0,0,3.705-3.159L201.1,149.281l-5.741,1.958.367,13.425-3.3-5.646Z" transform="translate(-185.191 -141.128)" fill="url(#linear-gradient)"/>
    </g>
    <g id="Group_10313" data-name="Group 10313" transform="translate(34.708 23.381)">
      <ellipse id="Ellipse_31" data-name="Ellipse 31" cx="7.936" cy="7.936" rx="7.936" ry="7.936" transform="translate(1.696 2.411)" fill="#ffb6b6"/>
      <path id="Path_4129" data-name="Path 4129" d="M144.145,90.153a14.853,14.853,0,0,1,1.092-1.092c1.092-.546-.03,4.792-.819,4.642-1.941-.369-2.779-1.1-3.533.726a3.671,3.671,0,0,1-.751,1.444c-.562.494-1.5.453-1.955,1.043a1.638,1.638,0,0,0,.011,1.709c.273.538.688.994.936,1.543.279.617-.909,2.58-1.362,3.683v0l0,.006c-.12.289-.407-.544-.709-.627-.362-.1-.894.754-1.47.6l-.008,0c-.549-.153-1.16-.317-1.767-.481h0c-1.706-.464-2.138.2-2.22.183l-1.059-1.109c-.364-.265-.322-1.119-.579-1.349-.21-.188-.732.246-.886.066-.755-.885-.929-1.77-1.374-3.517-.407-1.6-1.25-6.378.483-6.594,1.635-.2.44-2.482,2.086-2.4a1.3,1.3,0,0,1,.382-1.166,3.089,3.089,0,0,1,1.084-.663c1.952-.8,1.627-1.483,3.686-1.018.2-.287,3.178-.1,3.549,0,.027.005-.92.232.546,0-.055.336.874.483.819.819.2-.276,2.405,1.308,2.457,1.638.068.412-.554.2-.139.265.246.038.666.538.625.786.177-.24.355-.478.535-.718.033,0,.063.008.1.014.83.158-.122,2.872-.087,2.026C143.872,89.061,144.972,89.97,144.145,90.153Z" transform="translate(-127.12 -85.633)" fill="#2f2e41"/>
    </g>
    <path id="Path_4130" data-name="Path 4130" d="M296.23,225.876a.179.179,0,0,0,.333,0,15.231,15.231,0,0,1,1.693-3.127.18.18,0,0,0-.208-.276l-1.415.512v-8.761h-.474v8.761l-1.416-.512a.18.18,0,0,0-.208.276A15.244,15.244,0,0,1,296.23,225.876Z" transform="translate(-214.093 -155.734)" fill="#3f3d56"/>
    <path id="Path_4131" data-name="Path 4131" d="M334.805,265.526a.179.179,0,0,0,.261.207,15.232,15.232,0,0,1,3.271-1.4.18.18,0,0,0,.009-.345l-1.427-.479,5.448-6.86-.371-.295-5.448,6.86-.79-1.281a.18.18,0,0,0-.334.087A15.241,15.241,0,0,1,334.805,265.526Z" transform="translate(-243.388 -186.364)" fill="#3f3d56"/>
    <g id="Group_10315" data-name="Group 10315" transform="translate(75.838 72.472)">
      <path id="Path_4132" data-name="Path 4132" d="M288.911,277.969H279.7a1.038,1.038,0,0,1-1.037-1.037,15.59,15.59,0,0,1,0-10.463,1.038,1.038,0,0,1,1.037-1.037h9.207a1.038,1.038,0,0,1,1.037,1.037v10.463A1.038,1.038,0,0,1,288.911,277.969Z" transform="translate(-277.763 -265.432)" fill="#e6e6e6"/>
      <path id="Path_4133" data-name="Path 4133" d="M284.906,266.563a2.7,2.7,0,0,0-2.7,2.7v8.269a.95.95,0,0,0,.95.95h5.091a4.621,4.621,0,0,0,4.621-4.621v-6.348a.95.95,0,0,0-.95-.95Z" transform="translate(-280.993 -266.255)" fill="#fff"/>
      <g id="Group_10314" data-name="Group 10314" transform="translate(1.868 2.955)">
        <path id="Path_4134" data-name="Path 4134" d="M297.583,276.651h-4.311a.2.2,0,0,1,0-.394h4.311a.2.2,0,0,1,0,.394Z" transform="translate(-290.762 -276.257)" fill="#e6e6e6"/>
        <path id="Path_4135" data-name="Path 4135" d="M297.583,292.043h-4.311a.2.2,0,0,1,0-.394h4.311a.2.2,0,0,1,0,.394Z" transform="translate(-290.762 -287.447)" fill="#e6e6e6"/>
        <path id="Path_4136" data-name="Path 4136" d="M293.737,284.352H284.8a.2.2,0,1,1,0-.394h8.937a.2.2,0,0,1,0,.394Z" transform="translate(-284.604 -281.855)" fill="#e6e6e6"/>
      </g>
      <path id="Path_4137" data-name="Path 4137" d="M307.99,298.3h-3.729a.2.2,0,1,1,0-.394h3.729a.2.2,0,0,1,0,.394Z" transform="translate(-296.883 -289.041)" fill="#e6e6e6"/>
    </g>
    <g id="Group_10316" data-name="Group 10316" transform="translate(0 0)">
      <ellipse id="Ellipse_32" data-name="Ellipse 32" cx="3.403" cy="3.331" rx="3.403" ry="3.331" transform="translate(0 0.088)" fill="url(#linear-gradient)"/>
      <path id="Path_4138" data-name="Path 4138" d="M60.573,2.279H42.257a1.14,1.14,0,1,1,0-2.279H60.573a1.14,1.14,0,0,1,0,2.279Z" transform="translate(-29.891)" fill="#f2f2f2"/>
      <path id="Path_4139" data-name="Path 4139" d="M74.867,16.406H42.257a1.14,1.14,0,1,1,0-2.279h32.61a1.14,1.14,0,0,1,0,2.279Z" transform="translate(-29.891 -10.27)" fill="#f2f2f2"/>
    </g>
  </g>
</svg>
