<svg xmlns="http://www.w3.org/2000/svg" width="139.802" height="38.531" viewBox="0 0 139.802 38.531">
  <g id="Group_10265" data-name="Group 10265" transform="translate(-73 -132)">
    <g id="Group_2" data-name="Group 2" transform="translate(187.947 160.27)">
      <path id="Path_6" data-name="Path 6" d="M327.318,81.5v9.959h5.735v-.906h-4.829V81.5Z" transform="translate(-327.318 -81.499)" fill="#fff"/>
      <path id="Path_7" data-name="Path 7" d="M351.749,86.946h.905V94.8h-.905v-.966a4.121,4.121,0,0,1-3.018,1.267,4.225,4.225,0,0,1,0-8.45,4.12,4.12,0,0,1,3.018,1.268Zm0,2.523a3.524,3.524,0,0,0-.664-.942,3.326,3.326,0,1,0,0,4.7,3.353,3.353,0,0,0,.664-.93Z" transform="translate(-338.47 -84.845)" fill="#fff"/>
      <path id="Path_8" data-name="Path 8" d="M375.49,84.577a4.121,4.121,0,0,1,3.018-1.267,4.225,4.225,0,0,1,0,8.45,4.12,4.12,0,0,1-3.018-1.268v.966h-.906V81.5h.906Zm0,4.37a3.233,3.233,0,0,0,.676.93,3.314,3.314,0,1,0,0-4.7,3.4,3.4,0,0,0-.676.942Z" transform="translate(-357.985 -81.499)" fill="#fff"/>
    </g>
    <g id="Group_3" data-name="Group 3" transform="translate(107.596 137.498)">
      <path id="Path_1" data-name="Path 1" d="M109.744,27.676V15.656h2.674V33.3h-1.754L101.188,20.96V33.3H98.514V15.656H100.5Z" transform="translate(-98.515 -15.655)" fill="#fff"/>
      <path id="Path_2" data-name="Path 2" d="M198.58,26.118a7.5,7.5,0,0,1,11.764,6.16,7.5,7.5,0,0,1-11.764,6.16v4.535h-2.674V25.327h2.674Zm0,3.936V34.5a4.944,4.944,0,0,0,.877,1.176,4.81,4.81,0,1,0,6.8-6.8,4.8,4.8,0,0,0-6.8,0,4.951,4.951,0,0,0-.877,1.176" transform="translate(-161.704 -21.583)" fill="#fff"/>
      <path id="Path_3" data-name="Path 3" d="M245.217,15.655h2.674V19.4h2.139v2.674H247.89V33.3h-2.674Z" transform="translate(-193.698 -15.655)" fill="#fff"/>
      <path id="Path_4" data-name="Path 4" d="M275.707,35.9V26.314h2.674V40.239h-2.674v-.556A6.963,6.963,0,0,1,265.012,33.8V26.314h2.674V33.8a4.28,4.28,0,0,0,7.294,3.037,4.388,4.388,0,0,0,.727-.941" transform="translate(-206.542 -22.571)" fill="#fff"/>
      <path id="Path_5" data-name="Path 5" d="M313.934,29.646v9.583H311.26V25.3h2.674v.556a6.963,6.963,0,0,1,10.695,5.882v7.486h-2.674V31.743a4.281,4.281,0,0,0-7.294-3.037,4.395,4.395,0,0,0-.727.941" transform="translate(-236.548 -21.583)" fill="#fff"/>
      <path id="Path_9" data-name="Path 9" d="M158.8,34.943h2.753a9.665,9.665,0,0,0,.121-1.331,7.494,7.494,0,1,0-12.8,5.294,7.13,7.13,0,0,0,4.533,2.144h0c.248.022.5.035.756.034h.022c.222,0,.447-.013.676-.03l.1-.007.1-.008v-.006a7.17,7.17,0,0,0,4.4-2.14,7.467,7.467,0,0,0,1.673-2.487h-3.06a5.032,5.032,0,0,1-.5.6,4.635,4.635,0,0,1-3.4,1.406c-.06,0-.117-.006-.176-.008-.133-.006-.266-.011-.394-.025l-.044-.006c-.164-.02-.325-.047-.482-.081l-.068-.017c-.136-.032-.268-.07-.4-.113l-.152-.054c-.088-.033-.174-.069-.26-.107s-.17-.077-.253-.12c-.033-.017-.066-.037-.1-.055A4.943,4.943,0,0,1,150.77,37a5.064,5.064,0,0,1-.5-.6h-.01a4.478,4.478,0,0,1-.712-1.461Zm-8.031-4.734a4.818,4.818,0,0,1,8.031,2.072h-9.256a4.613,4.613,0,0,1,1.225-2.072" transform="translate(-129.769 -22.448)" fill="#fff"/>
      <path id="Path_10" data-name="Path 10" d="M367.528,34.943h2.753a9.667,9.667,0,0,0,.121-1.331,7.494,7.494,0,1,0-12.8,5.294,7.13,7.13,0,0,0,4.533,2.144h0c.248.022.5.035.756.034h.022c.222,0,.447-.013.676-.03l.1-.007.1-.008v-.006a7.17,7.17,0,0,0,4.4-2.14,7.467,7.467,0,0,0,1.673-2.487h-3.06a5.028,5.028,0,0,1-.5.6,4.635,4.635,0,0,1-3.4,1.406c-.06,0-.117-.006-.176-.008-.133-.006-.266-.011-.394-.025l-.044-.006c-.164-.02-.325-.047-.482-.081l-.068-.017c-.136-.032-.268-.07-.4-.113l-.152-.054c-.088-.033-.174-.069-.26-.107s-.17-.077-.253-.12c-.033-.017-.066-.037-.1-.055A4.943,4.943,0,0,1,359.5,37a5.065,5.065,0,0,1-.5-.6h-.01a4.478,4.478,0,0,1-.712-1.461ZM359.5,30.209a4.818,4.818,0,0,1,8.031,2.072h-9.256a4.613,4.613,0,0,1,1.225-2.072" transform="translate(-265.196 -22.448)" fill="#fff"/>
    </g>
    <g id="Group_1" data-name="Group 1" transform="translate(73 132)">
      <path id="Path_11" data-name="Path 11" d="M23.807,10.989c.686,3.275.765,6.819-.275,8.678a2.429,2.429,0,0,1-1.625,1.3c-1.932.409-4.324-1.224-6.855-2.95-2.9-1.98-5.9-4.026-8.753-3.611-2.9.424-4.9,2.782-6.129,4.848a14.316,14.316,0,0,0,.443,6.34A15.5,15.5,0,0,1,2.424,20.9a6.214,6.214,0,0,1,3.952-3.351c2.707-.58,5.293,1.311,7.576,2.98.52.38,1.012.74,1.472,1.044l.1.065c2.482,1.643,5.048,3.34,6.865,2.957a3.06,3.06,0,0,0,1.89-1.515c1.381-2.161,3.006-7.981-.471-12.087" transform="translate(0 -7.13)" fill="#fff"/>
      <path id="Path_12" data-name="Path 12" d="M18.934,2.74A21.478,21.478,0,0,1,26.3,6.1c1.658,1.04,3.094,1.934,4.132,1.9a1.259,1.259,0,0,0,1.035-.616c.711-1.061.725-3.273.105-6.048A14.253,14.253,0,0,0,17.307,2.622a7.768,7.768,0,0,1,1.627.118" transform="translate(-11.229 0)" fill="#fff"/>
      <path id="Path_13" data-name="Path 13" d="M23.982,6.006c-.071-.071-.139-.143-.213-.214a9.236,9.236,0,0,0-1.253-.976A14.437,14.437,0,0,0,21.2,4.1c.606,2.769.568,4.946-.168,6.044a1.427,1.427,0,0,1-1.174.694h-.064c-1.089,0-2.518-.9-4.167-1.931a21.346,21.346,0,0,0-7.3-3.334,7.53,7.53,0,0,0-1.86-.1A14.357,14.357,0,0,0,1,13.841c1.287-1.918,3.22-3.866,5.9-4.256,2.986-.434,6.182,1.745,9,3.668,2.468,1.684,4.8,3.275,6.585,2.9a2.1,2.1,0,0,0,1.391-1.124c1.063-1.9.9-5.664.108-9.019" transform="translate(-0.649 -2.66)" fill="#fff"/>
      <path id="Path_14" data-name="Path 14" d="M25.124,58.1a2.094,2.094,0,0,0-1.038.288,2.014,2.014,0,0,0-.892,1.016A1.249,1.249,0,0,0,24.2,61.155a2.019,2.019,0,0,0,1.326-.264,1.649,1.649,0,0,0,.832-2.146,1.382,1.382,0,0,0-1.236-.641" transform="translate(-14.985 -37.699)" fill="#fff"/>
      <path id="Path_15" data-name="Path 15" d="M27.121,57a15.447,15.447,0,0,1,4.426,1.621,14.411,14.411,0,0,0,6.224-6.928,8.144,8.144,0,0,1-3.582,2.784c-2.037.747-4.334.436-7.024-.951-1.384-.713-2.654-1.477-3.776-2.151-2.843-1.709-4.9-2.943-6.421-2.11-1.621.888-1.128,5.521-.917,7.5.046.429.074.706.085.9a14.351,14.351,0,0,0,3.544,1.9A8.47,8.47,0,0,1,27.121,57m-6.14-1.713a2.432,2.432,0,0,1-1.211.335,2.127,2.127,0,0,1-.348-.028,1.6,1.6,0,0,1-1.28-2.217,2.363,2.363,0,0,1,1.045-1.2,1.822,1.822,0,1,1,1.793,3.107" transform="translate(-10.261 -31.789)" fill="#fff"/>
      <path id="Path_16" data-name="Path 16" d="M27.343,74.5a14.267,14.267,0,0,0,11.5-.906,15.121,15.121,0,0,0-4.271-1.55A8.26,8.26,0,0,0,27.343,74.5" transform="translate(-17.741 -46.666)" fill="#fff"/>
      <path id="Path_17" data-name="Path 17" d="M10.006,45.02c-.263-2.473-.753-7.076,1.278-8.189,1.876-1.027,4.19.363,7.12,2.124,1.112.668,2.372,1.425,3.735,2.128,2.5,1.292,4.618,1.591,6.46.916,1.772-.649,3.3-2.191,4.631-4.679a14.293,14.293,0,0,0-.112-6.535,12.456,12.456,0,0,1-2.029,6.348,5.246,5.246,0,0,1-3.321,2.506c-2.74.579-5.706-1.383-8.575-3.282l-.1-.065c-.5-.333-1.016-.708-1.558-1.1-1.9-1.39-4.057-2.964-5.773-2.6A4.074,4.074,0,0,0,9.3,34.851c-2.5,4.4-1.73,7.286-1.083,8.578a14.427,14.427,0,0,0,1.818,1.823c-.008-.077-.017-.154-.025-.232" transform="translate(-4.913 -19.974)" fill="#fff"/>
    </g>
  </g>
</svg>
