<svg xmlns="http://www.w3.org/2000/svg" xmlns:xlink="http://www.w3.org/1999/xlink" width="60.414" height="119.538" viewBox="0 0 60.414 119.538">
  <defs>
    <linearGradient id="linear-gradient" x1="0.5" x2="0.5" y2="1" gradientUnits="objectBoundingBox">
      <stop offset="0" stop-color="#86b3ff"/>
      <stop offset="1" stop-color="#64c6ff"/>
    </linearGradient>
  </defs>
  <g id="Group_10330" data-name="Group 10330" transform="translate(0 0)">
    <g id="Group_10325" data-name="Group 10325" transform="translate(0 0)">
      <path id="b" d="M138.382,28.407h0V10.414A10.414,10.414,0,0,0,127.968,0H89.847A10.414,10.414,0,0,0,79.433,10.414v98.711a10.414,10.414,0,0,0,10.414,10.414h38.121a10.414,10.414,0,0,0,10.414-10.414V41.214h0a.656.656,0,0,0,.656-.656v-11.5A.656.656,0,0,0,138.382,28.407Z" transform="translate(-78.623 0)" fill="#3f3d56"/>
      <path id="c" d="M147.771,17.713V117.818c-6.086-.374-12.111,6.6-7.9,7.9h-38.9a7.9,7.9,0,0,1-7.9-7.9V17.713a7.9,7.9,0,0,1,7.9-7.9h2.869c-.781,1.921,5.524,2.547,6.008,2.547h19.924c2.074,0,7.078-2.1,6.9-2.547h3.2a7.9,7.9,0,0,1,7.9,7.9v0Z" transform="translate(-89.968 -8.165)" fill="#fff"/>
      <path id="d" d="M185.748,423.836h-34.57a.641.641,0,0,1-.64-.64V414.62a.641.641,0,0,1,.64-.64h34.57a.641.641,0,0,1,.64.64V423.2A.641.641,0,0,1,185.748,423.836Zm-34.57-9.6a.384.384,0,0,0-.384.384V423.2a.384.384,0,0,0,.384.384h34.57a.384.384,0,0,0,.384-.384V414.62a.384.384,0,0,0-.384-.384Z" transform="translate(-137.769 -344.351)" fill="#e6e6e6"/>
      <path id="e" d="M185.748,522.094h-34.57a.641.641,0,0,1-.64-.64v-8.575a.641.641,0,0,1,.64-.64h34.57a.641.641,0,0,1,.64.64v8.575a.641.641,0,0,1-.64.64Zm-34.57-9.6a.384.384,0,0,0-.384.384v8.575a.384.384,0,0,0,.384.384h34.57a.384.384,0,0,0,.384-.384v-8.575a.384.384,0,0,0-.384-.384Z" transform="translate(-137.769 -426.083)" fill="#e6e6e6"/>
      <path id="g" d="M159.068,253.685c.039-.043.078-.084.118-.126.976-1.026,1.488-1.634,2.679-1.634.221,0,1.195.01,1.4.03a3.578,3.578,0,0,1,2.006.756,3.676,3.676,0,0,1,1.113,2.967c0,.075,0,.215.011.4a7.76,7.76,0,0,0,.93,2.619,5.855,5.855,0,0,1-.447,3.084c-.176.242-.211-.365-.752-.251-.1.022-.515.824-.627.84a12.068,12.068,0,0,1-1.749.1c-.077,0-.154,0-.234,0h0c-.277,0-.573-.01-.887-.022a13.777,13.777,0,0,1-2.481-.277h0c-.108-.024-.214-.052-.318-.081l-.019-.005-.009-.017a2.441,2.441,0,0,1-.248-.964,2.114,2.114,0,0,0-.343.711l-.013.049-.262-.848c-.365-.157-.466.418-.7.1a2.334,2.334,0,0,1-.392-1.121C157.721,258.907,158.169,254.688,159.068,253.685Z" transform="translate(-143.827 -209.553)" fill="#2f2e41"/>
      <path id="h" d="M163.509,399.019h5.171l.867-4.287.281,4.287h5.14c0-3.177-1.307-11.005-1.151-11.071s-.08-.274-.08-.274l-.838-2.878-.079-.271h-5.985a8.766,8.766,0,0,0-.95,1.049c-.1.124-.2.259-.3.4-.073.1-.148.211-.223.324a10.87,10.87,0,0,0-1.475,3.244h0q-.079.3-.14.606h0c-.036.184-.068.37-.093.561-.019.139-.035.28-.047.422a9.672,9.672,0,0,0,.075,2.366Z" transform="translate(-148.558 -319.849)" fill="#2f2e41"/>
      <ellipse id="i" cx="3.018" cy="3.018" rx="3.018" ry="3.018" transform="translate(16.359 43.968)" fill="#ffb6b6"/>
      <path id="j" d="M170.529,256.608h2.955a3.468,3.468,0,0,1,1.091-.077,2.29,2.29,0,0,1,1.234.477,2.37,2.37,0,0,1,.82,1.9,4.805,4.805,0,0,1,0,.847l-.359-.592-.095.592c-.273.07-.2.084-.476.138l-.2.038a4.831,4.831,0,0,0-.7.193l-.408-.047c-.255-.234-.3-.812-.433-1.131-.027.093-.059.256-.091.433a.961.961,0,0,1-.944.79h-.008c-1.134,0-1.133-.878-2.234-1.15-.072-.017.668,5.114.6,5.095l-2.267-1.457.293-4.831a1.227,1.227,0,0,1,1.225-1.225Z" transform="translate(-153.135 -213.373)" fill="#2f2e41"/>
      <path id="k" d="M158.421,248.315c-.544,1.112-.148,1.362.964,1.907s2.52,1.176,3.065.064-.409-2.021-1.521-2.566c.237-.922-1.353-1.345-2.125.043.265.222-.346.824-.214,1.144-.271-.219.2-.638-.147-.6l-.021,0Z" transform="translate(-144.125 -205.347)" fill="#2f2e41"/>
      <path id="l" d="M185.748,522.094h-34.57a.641.641,0,0,1-.64-.64v-8.575a.641.641,0,0,1,.64-.64h34.57a.641.641,0,0,1,.64.64v8.575a.641.641,0,0,1-.64.64Zm-34.57-9.6a.384.384,0,0,0-.384.384v8.575a.384.384,0,0,0,.384.384h34.57a.384.384,0,0,0,.384-.384v-8.575a.384.384,0,0,0-.384-.384Z" transform="translate(-137.769 -426.083)" fill="url(#linear-gradient)"/>
      <path id="m" d="M192.042,530.879a.448.448,0,1,0,0,.9h21.126a.448.448,0,0,0,.034-.9h-21.16Z" transform="translate(-171.92 -441.588)" fill="url(#linear-gradient)"/>
      <path id="n" d="M192.042,546.865a.448.448,0,1,0,0,.9h21.126a.448.448,0,0,0,.034-.9h-21.16Z" transform="translate(-171.92 -454.885)" fill="#e6e6e6"/>
      <path id="o" d="M185.748,124.279h-34.57a.641.641,0,0,1-.64-.64v-8.575a.641.641,0,0,1,.64-.64h34.57a.641.641,0,0,1,.64.64v8.575a.641.641,0,0,1-.64.64Zm-34.57-9.6a.384.384,0,0,0-.384.384v8.575a.384.384,0,0,0,.384.384h34.57a.384.384,0,0,0,.384-.384v-8.575a.384.384,0,0,0-.384-.384Z" transform="translate(-137.769 -95.178)" fill="url(#linear-gradient)"/>
      <path id="p" d="M215.692,133.063a.448.448,0,1,0,0,.9h21.126a.448.448,0,1,0,.034-.9h-21.16Z" transform="translate(-191.591 -110.683)" fill="#e6e6e6"/>
      <path id="q" d="M215.692,149.049a.448.448,0,1,0,0,.9h21.126a.448.448,0,1,0,.034-.9h-21.16Z" transform="translate(-191.591 -123.98)" fill="#e6e6e6"/>
      <ellipse id="r" cx="2.689" cy="2.689" rx="2.689" ry="2.689" transform="translate(15.202 21.484)" fill="url(#linear-gradient)"/>
      <g id="Group_10322" data-name="Group 10322" transform="translate(0 30.611)">
        <path id="Path_4157" data-name="Path 4157" d="M75.122,182a.5.5,0,0,0-.5.5v4.024a.5.5,0,0,0,1.006,0V182.5A.5.5,0,0,0,75.122,182Z" transform="translate(-74.619 -181.995)" fill="#3f3d56"/>
        <path id="Path_4158" data-name="Path 4158" d="M75.122,253.777a.5.5,0,0,0-.5.5v7.8a.5.5,0,1,0,1.006,0v-7.8A.5.5,0,0,0,75.122,253.777Z" transform="translate(-74.619 -241.703)" fill="#3f3d56"/>
        <path id="Path_4159" data-name="Path 4159" d="M75.122,319.576a.5.5,0,0,0-.5.5v7.8a.5.5,0,0,0,1.006,0v-7.8A.5.5,0,0,0,75.122,319.576Z" transform="translate(-74.619 -296.436)" fill="#3f3d56"/>
      </g>
      <ellipse id="Ellipse_75" data-name="Ellipse 75" cx="1.682" cy="1.682" rx="1.682" ry="1.682" transform="translate(33.213 43.192)" fill="#e6e6e6"/>
      <path id="Path_4160" data-name="Path 4160" d="M278.248,246.786a.373.373,0,0,0-.646,0l-.723,1.62a10.293,10.293,0,0,0-2.688-5.066.545.545,0,0,0-.942,0,19.917,19.917,0,0,1-4.648,8.234.755.755,0,0,0,.7,1.037h10.8a1,1,0,0,0,.955-1.316A7.079,7.079,0,0,0,278.248,246.786Z" transform="translate(-235.928 -202.186)" fill="url(#linear-gradient)"/>
      <path id="Path_4161" data-name="Path 4161" d="M259.277,218.8a9.583,9.583,0,1,0,9.587,9.587,9.6,9.6,0,0,0-9.587-9.587Zm7.644,14.789a9.245,9.245,0,1,1,1.606-5.2A9.248,9.248,0,0,1,266.922,233.588Z" transform="translate(-220.244 -181.998)" fill="#e6e6e6"/>
      <g id="Group_10323" data-name="Group 10323" transform="translate(15.148 48.818)">
        <path id="Path_4162" data-name="Path 4162" d="M237.94,291.026h0c.439-.653,1.132-.956,1.548-.677s.4,1.035-.042,1.688a1.969,1.969,0,0,1-.678.637l-1.9,2.744L235.6,294.5l2-2.608a1.97,1.97,0,0,1,.334-.868Z" transform="translate(-223.675 -290.245)" fill="#ffb6b6"/>
        <path id="Path_4163" data-name="Path 4163" d="M178.559,308.728l-5.187,5.957-.478.548-2.222-.8-3.428-1.243h0l-2.563-.928c.027-.227.064-.452.113-.676a7.4,7.4,0,0,1,.193-.73A7.6,7.6,0,0,1,166,308.805a4.619,4.619,0,0,1,.5.241l3.821,1.655,2.126.92.87-.848,3.746-3.653.35.375,0,0,1.044,1.12,0,0Z" transform="translate(-164.68 -304.282)" fill="url(#linear-gradient)"/>
      </g>
      <path id="Path_4164" data-name="Path 4164" d="M174.4,318.612l-8.686-.375c.129-.267-.067-.545,0-.779.059-.2.389-.367.4-.557a7.39,7.39,0,0,0-1.277-4.5,3.159,3.159,0,0,1-.419-1.4,7.17,7.17,0,0,1,.012-1.589c.027-.227.064-.452.113-.676a7.412,7.412,0,0,1,.193-.73,7.6,7.6,0,0,1,1.014-2.047c.029-.044.059-.086.089-.128a7.743,7.743,0,0,1,.526-.651,8.134,8.134,0,0,1,.7-.685l.375-.325,3.488-.474,1.825,3.615.311.616.336.666a12.775,12.775,0,0,0-.293,2.447c-.005.276,0,.542.015.8a11.5,11.5,0,0,0,.119,1.15c.138.9.358,1.717.565,2.545.109.432.214.866.3,1.317.04.212.466.629.526.821C174.717,317.923,174.279,318.4,174.4,318.612Z" transform="translate(-149.284 -252.611)" fill="url(#linear-gradient)"/>
      <g id="Group_10324" data-name="Group 10324" transform="translate(15.26 53.213)">
        <path id="Path_4165" data-name="Path 4165" d="M243.831,348.5h0c.727-.3,1.472-.171,1.664.291s-.242,1.082-.969,1.384a1.969,1.969,0,0,1-.917.156l-3.1,1.239-.551-1.465,3.11-1.066a1.97,1.97,0,0,1,.758-.539h0Z" transform="translate(-227.413 -342.965)" fill="#ffb6b6"/>
        <path id="Path_4166" data-name="Path 4166" d="M165.543,318.555a7.4,7.4,0,0,0-.193.73l5.752,7.766,3.512-.967,4.807-1.324-.025-.15-.252-1.514-.084-.506-5.01.949-1.324.251-2.239-3.443h0l-1.293-1.99a3.358,3.358,0,0,0-2.545-1.976l-1.1,2.175Z" transform="translate(-165.35 -316.38)" fill="url(#linear-gradient)"/>
      </g>
      <ellipse id="Ellipse_76" data-name="Ellipse 76" cx="1.016" cy="1.016" rx="1.016" ry="1.016" transform="translate(46.963 78.213)" fill="#e6e6e6"/>
    </g>
  </g>
</svg>
