<svg xmlns="http://www.w3.org/2000/svg" xmlns:xlink="http://www.w3.org/1999/xlink" width="153.751" height="105.429" viewBox="0 0 153.751 105.429">
  <defs>
    <linearGradient id="linear-gradient" x1="0.5" x2="0.5" y2="1" gradientUnits="objectBoundingBox">
      <stop offset="0" stop-color="#86b3ff"/>
      <stop offset="1" stop-color="#64c6ff"/>
    </linearGradient>
    <linearGradient id="linear-gradient-5" x1="0.5" x2="0.5" y2="1" gradientUnits="objectBoundingBox">
      <stop offset="0" stop-color="#1d4d9d"/>
      <stop offset="1" stop-color="#08205e"/>
    </linearGradient>
  </defs>
  <g id="Group_10326" data-name="Group 10326" transform="translate(0 0)">
    <ellipse id="Ellipse_77" data-name="Ellipse 77" cx="5.218" cy="5.218" rx="5.218" ry="5.218" transform="translate(84.342 2.884)" fill="#f2f2f2"/>
    <path id="Path_4167" data-name="Path 4167" d="M371.436,287.348a24.581,24.581,0,0,0,9.14-25.3q-.086-.353-.182-.7c-1.537-5.621-5.341-10.963-10.884-12.758-4.655-1.508-9.735-.348-14.591-.948-9.532-1.177-16.922-8.89-22.122-16.965s-9.2-17.114-16.106-23.786c-11.389-11-29.968-13.364-44.089-6.206s-23.116,23.039-22.732,38.866,9.779,30.959,23.424,38.987c5.013,2.949,10.81,5.039,16.58,4.308,5.006-.634,9.555-3.324,14.538-4.123,7.834-1.256,15.618,2.286,22.394,6.414s13.321,9.02,21.021,10.934C355.3,297.921,364.566,292.581,371.436,287.348Z" transform="translate(-241.403 -196.595)" fill="url(#linear-gradient)"/>
    <path id="Path_4169" data-name="Path 4169" d="M206.59,598.162a56.468,56.468,0,0,0,5.495,5.657l142.761.2a56.474,56.474,0,0,0,5.495-5.657Z" transform="translate(-206.59 -519.692)" fill="#3f3d56"/>
    <path id="Path_4170" data-name="Path 4170" d="M702.02,502.152V518.9a.805.805,0,0,0,.8.8h24.818a.805.805,0,0,0,.8-.8V502.152a.806.806,0,0,0-.8-.8H702.825A.806.806,0,0,0,702.02,502.152Z" transform="translate(-605.209 -441.796)" fill="#3f3d56"/>
    <path id="Path_4171" data-name="Path 4171" d="M705,504.754v16.332a.431.431,0,0,0,.43.43h24.4a.431.431,0,0,0,.43-.43V504.754a.431.431,0,0,0-.43-.431h-24.4A.431.431,0,0,0,705,504.754Z" transform="translate(-607.606 -444.19)" fill="url(#linear-gradient)"/>
    <path id="Path_4172" data-name="Path 4172" d="M698.911,596.538a.483.483,0,0,0,.38.182h26.574a.489.489,0,0,0,.478-.589l-.412-1.959a.49.49,0,0,0-.3-.355.473.473,0,0,0-.174-.033H699.7a.473.473,0,0,0-.174.033.49.49,0,0,0-.3.355l-.412,1.959a.489.489,0,0,0,.1.408Z" transform="translate(-602.619 -516.169)" fill="#2f2e41"/>
    <rect id="Rectangle_6690" data-name="Rectangle 6690" width="0.818" height="0.491" rx="0.246" transform="translate(122.644 78.458) rotate(180)" fill="#3f3d56"/>
    <rect id="Rectangle_6691" data-name="Rectangle 6691" width="0.818" height="0.491" rx="0.246" transform="translate(121.007 78.458) rotate(180)" fill="#3f3d56"/>
    <rect id="Rectangle_6692" data-name="Rectangle 6692" width="0.818" height="0.491" rx="0.246" transform="translate(119.37 78.458) rotate(180)" fill="#3f3d56"/>
    <rect id="Rectangle_6693" data-name="Rectangle 6693" width="0.818" height="0.491" rx="0.246" transform="translate(117.733 78.458) rotate(180)" fill="#3f3d56"/>
    <rect id="Rectangle_6694" data-name="Rectangle 6694" width="0.818" height="0.491" rx="0.246" transform="translate(116.096 78.458) rotate(180)" fill="#3f3d56"/>
    <rect id="Rectangle_6695" data-name="Rectangle 6695" width="0.818" height="0.491" rx="0.246" transform="translate(114.46 78.458) rotate(180)" fill="#3f3d56"/>
    <rect id="Rectangle_6696" data-name="Rectangle 6696" width="0.818" height="0.491" rx="0.246" transform="translate(112.823 78.458) rotate(180)" fill="#3f3d56"/>
    <rect id="Rectangle_6697" data-name="Rectangle 6697" width="0.818" height="0.491" rx="0.246" transform="translate(111.186 78.458) rotate(180)" fill="#3f3d56"/>
    <rect id="Rectangle_6698" data-name="Rectangle 6698" width="0.818" height="0.491" rx="0.246" transform="translate(109.549 78.458) rotate(180)" fill="#3f3d56"/>
    <rect id="Rectangle_6699" data-name="Rectangle 6699" width="0.818" height="0.491" rx="0.246" transform="translate(107.912 78.458) rotate(180)" fill="#3f3d56"/>
    <rect id="Rectangle_6700" data-name="Rectangle 6700" width="0.818" height="0.491" rx="0.246" transform="translate(106.275 78.458) rotate(180)" fill="#3f3d56"/>
    <rect id="Rectangle_6701" data-name="Rectangle 6701" width="0.818" height="0.491" rx="0.246" transform="translate(104.638 78.458) rotate(180)" fill="#3f3d56"/>
    <rect id="Rectangle_6702" data-name="Rectangle 6702" width="0.818" height="0.491" rx="0.246" transform="translate(103.001 78.458) rotate(180)" fill="#3f3d56"/>
    <rect id="Rectangle_6703" data-name="Rectangle 6703" width="0.818" height="0.491" rx="0.246" transform="translate(101.364 78.458) rotate(180)" fill="#3f3d56"/>
    <rect id="Rectangle_6704" data-name="Rectangle 6704" width="0.818" height="0.491" rx="0.246" transform="translate(99.727 78.458) rotate(180)" fill="#3f3d56"/>
    <rect id="Rectangle_6705" data-name="Rectangle 6705" width="0.818" height="0.491" rx="0.246" transform="translate(98.09 78.458) rotate(180)" fill="#3f3d56"/>
    <rect id="Rectangle_6706" data-name="Rectangle 6706" width="0.818" height="0.491" rx="0.246" transform="translate(122.664 79.276) rotate(180)" fill="#3f3d56"/>
    <rect id="Rectangle_6707" data-name="Rectangle 6707" width="0.818" height="0.491" rx="0.246" transform="translate(121.027 79.276) rotate(180)" fill="#3f3d56"/>
    <rect id="Rectangle_6708" data-name="Rectangle 6708" width="0.818" height="0.491" rx="0.246" transform="translate(119.39 79.276) rotate(180)" fill="#3f3d56"/>
    <rect id="Rectangle_6709" data-name="Rectangle 6709" width="0.818" height="0.491" rx="0.246" transform="translate(117.753 79.276) rotate(180)" fill="#3f3d56"/>
    <rect id="Rectangle_6710" data-name="Rectangle 6710" width="0.818" height="0.491" rx="0.246" transform="translate(116.116 79.276) rotate(180)" fill="#3f3d56"/>
    <rect id="Rectangle_6711" data-name="Rectangle 6711" width="0.818" height="0.491" rx="0.246" transform="translate(114.479 79.276) rotate(180)" fill="#3f3d56"/>
    <rect id="Rectangle_6712" data-name="Rectangle 6712" width="0.818" height="0.491" rx="0.246" transform="translate(112.842 79.276) rotate(180)" fill="#3f3d56"/>
    <rect id="Rectangle_6713" data-name="Rectangle 6713" width="0.818" height="0.491" rx="0.246" transform="translate(111.205 79.276) rotate(180)" fill="#3f3d56"/>
    <rect id="Rectangle_6714" data-name="Rectangle 6714" width="0.818" height="0.491" rx="0.246" transform="translate(109.568 79.276) rotate(180)" fill="#3f3d56"/>
    <rect id="Rectangle_6715" data-name="Rectangle 6715" width="0.818" height="0.491" rx="0.246" transform="translate(107.931 79.276) rotate(180)" fill="#3f3d56"/>
    <rect id="Rectangle_6716" data-name="Rectangle 6716" width="0.818" height="0.491" rx="0.246" transform="translate(106.294 79.276) rotate(180)" fill="#3f3d56"/>
    <rect id="Rectangle_6717" data-name="Rectangle 6717" width="0.818" height="0.491" rx="0.246" transform="translate(104.657 79.276) rotate(180)" fill="#3f3d56"/>
    <rect id="Rectangle_6718" data-name="Rectangle 6718" width="0.818" height="0.491" rx="0.246" transform="translate(103.02 79.276) rotate(180)" fill="#3f3d56"/>
    <rect id="Rectangle_6719" data-name="Rectangle 6719" width="0.818" height="0.491" rx="0.246" transform="translate(101.383 79.276) rotate(180)" fill="#3f3d56"/>
    <rect id="Rectangle_6720" data-name="Rectangle 6720" width="0.818" height="0.491" rx="0.246" transform="translate(99.747 79.276) rotate(180)" fill="#3f3d56"/>
    <rect id="Rectangle_6721" data-name="Rectangle 6721" width="0.818" height="0.491" rx="0.246" transform="translate(98.11 79.276) rotate(180)" fill="#3f3d56"/>
    <rect id="Rectangle_6722" data-name="Rectangle 6722" width="6.548" height="0.491" rx="0.246" transform="translate(114.806 80.258) rotate(180)" fill="#3f3d56"/>
    <rect id="Rectangle_6723" data-name="Rectangle 6723" width="1.166" height="0.61" rx="0.305" transform="translate(100.758 63.706)" fill="#fff"/>
    <rect id="Rectangle_6724" data-name="Rectangle 6724" width="1.166" height="0.61" rx="0.305" transform="translate(107.113 63.706)" fill="#fff"/>
    <rect id="Rectangle_6725" data-name="Rectangle 6725" width="1.166" height="0.61" rx="0.305" transform="translate(108.914 63.706)" fill="#fff"/>
    <rect id="Rectangle_6726" data-name="Rectangle 6726" width="4.064" height="0.61" rx="0.305" transform="translate(102.487 63.655)" fill="#fff"/>
    <rect id="Rectangle_6727" data-name="Rectangle 6727" width="4.064" height="0.61" rx="0.305" transform="translate(110.961 63.655)" fill="#fff"/>
    <rect id="Rectangle_6728" data-name="Rectangle 6728" width="1.166" height="0.61" rx="0.305" transform="translate(102.453 65.083)" fill="#fff"/>
    <rect id="Rectangle_6729" data-name="Rectangle 6729" width="1.166" height="0.61" rx="0.305" transform="translate(108.808 65.083)" fill="#fff"/>
    <rect id="Rectangle_6730" data-name="Rectangle 6730" width="1.166" height="0.61" rx="0.305" transform="translate(110.609 65.083)" fill="#fff"/>
    <rect id="Rectangle_6731" data-name="Rectangle 6731" width="4.064" height="0.61" rx="0.305" transform="translate(104.182 65.032)" fill="#fff"/>
    <rect id="Rectangle_6732" data-name="Rectangle 6732" width="4.064" height="0.61" rx="0.305" transform="translate(112.655 65.032)" fill="#fff"/>
    <rect id="Rectangle_6733" data-name="Rectangle 6733" width="1.166" height="0.61" rx="0.305" transform="translate(104.148 66.46)" fill="#fff"/>
    <rect id="Rectangle_6734" data-name="Rectangle 6734" width="1.166" height="0.61" rx="0.305" transform="translate(110.503 66.46)" fill="#fff"/>
    <rect id="Rectangle_6735" data-name="Rectangle 6735" width="1.166" height="0.61" rx="0.305" transform="translate(112.304 66.46)" fill="#fff"/>
    <rect id="Rectangle_6736" data-name="Rectangle 6736" width="4.064" height="0.61" rx="0.305" transform="translate(105.876 66.409)" fill="#fff"/>
    <rect id="Rectangle_6737" data-name="Rectangle 6737" width="4.064" height="0.61" rx="0.305" transform="translate(114.35 66.409)" fill="#fff"/>
    <rect id="Rectangle_6738" data-name="Rectangle 6738" width="1.166" height="0.61" rx="0.305" transform="translate(105.842 67.837)" fill="#fff"/>
    <rect id="Rectangle_6739" data-name="Rectangle 6739" width="1.166" height="0.61" rx="0.305" transform="translate(112.198 67.837)" fill="#fff"/>
    <rect id="Rectangle_6740" data-name="Rectangle 6740" width="1.166" height="0.61" rx="0.305" transform="translate(113.998 67.837)" fill="#fff"/>
    <rect id="Rectangle_6741" data-name="Rectangle 6741" width="4.064" height="0.61" rx="0.305" transform="translate(107.571 67.786)" fill="#fff"/>
    <rect id="Rectangle_6742" data-name="Rectangle 6742" width="1.166" height="0.61" rx="0.305" transform="translate(107.113 73.312)" fill="#fff"/>
    <rect id="Rectangle_6743" data-name="Rectangle 6743" width="1.166" height="0.61" rx="0.305" transform="translate(108.914 73.312)" fill="#fff"/>
    <rect id="Rectangle_6744" data-name="Rectangle 6744" width="4.064" height="0.61" rx="0.305" transform="translate(110.961 73.363)" fill="#fff"/>
    <rect id="Rectangle_6745" data-name="Rectangle 6745" width="1.166" height="0.61" rx="0.305" transform="translate(100.758 73.312)" fill="#fff"/>
    <rect id="Rectangle_6746" data-name="Rectangle 6746" width="4.064" height="0.61" rx="0.305" transform="translate(102.487 73.363)" fill="#fff"/>
    <rect id="Rectangle_6747" data-name="Rectangle 6747" width="1.166" height="0.61" rx="0.305" transform="translate(102.453 71.935)" fill="#fff"/>
    <rect id="Rectangle_6748" data-name="Rectangle 6748" width="1.166" height="0.61" rx="0.305" transform="translate(108.808 71.935)" fill="#fff"/>
    <rect id="Rectangle_6749" data-name="Rectangle 6749" width="1.166" height="0.61" rx="0.305" transform="translate(110.609 71.935)" fill="#fff"/>
    <rect id="Rectangle_6750" data-name="Rectangle 6750" width="4.064" height="0.61" rx="0.305" transform="translate(104.182 71.986)" fill="#fff"/>
    <rect id="Rectangle_6751" data-name="Rectangle 6751" width="1.166" height="0.61" rx="0.305" transform="translate(104.148 70.558)" fill="#fff"/>
    <rect id="Rectangle_6752" data-name="Rectangle 6752" width="1.166" height="0.61" rx="0.305" transform="translate(110.503 70.558)" fill="#fff"/>
    <rect id="Rectangle_6753" data-name="Rectangle 6753" width="1.166" height="0.61" rx="0.305" transform="translate(112.304 70.558)" fill="#fff"/>
    <rect id="Rectangle_6754" data-name="Rectangle 6754" width="4.064" height="0.61" rx="0.305" transform="translate(105.876 70.609)" fill="#fff"/>
    <rect id="Rectangle_6755" data-name="Rectangle 6755" width="1.166" height="0.61" rx="0.305" transform="translate(105.842 69.181)" fill="#fff"/>
    <rect id="Rectangle_6756" data-name="Rectangle 6756" width="1.166" height="0.61" rx="0.305" transform="translate(112.198 69.181)" fill="#fff"/>
    <rect id="Rectangle_6757" data-name="Rectangle 6757" width="1.166" height="0.61" rx="0.305" transform="translate(113.998 69.181)" fill="#fff"/>
    <rect id="Rectangle_6758" data-name="Rectangle 6758" width="4.064" height="0.61" rx="0.305" transform="translate(107.571 69.232)" fill="#fff"/>
    <path id="Path_4173" data-name="Path 4173" d="M700.766,589.995l-2.609-4.123,8.188-6.527,3.38-3.744a3.744,3.744,0,0,1,6.335,1.334h0a3.744,3.744,0,0,1-2.261,4.688l-5.344,1.969Z" transform="translate(-602.102 -500.545)" fill="#ffb6b6"/>
    <path id="Path_4174" data-name="Path 4174" d="M398.28,498.568v20.041h14.04V498.568a.674.674,0,0,0-.475-.645.62.62,0,0,0-.2-.031H398.958A.677.677,0,0,0,398.28,498.568Zm5.479,6.886a1.5,1.5,0,1,1,3,0v2.325a1.5,1.5,0,1,1-3,0Z" transform="translate(-360.822 -439.016)" fill="#2f2e41"/>
    <path id="Path_4175" data-name="Path 4175" d="M398.06,600.632v1.932a.38.38,0,0,0,.377.379h13.372a.379.379,0,0,0,.377-.379v-1.932Z" transform="translate(-360.645 -521.68)" fill="#3f3d56"/>
    <path id="Path_4176" data-name="Path 4176" d="M285.25,339.6v36.592a1.76,1.76,0,0,0,1.759,1.759h54.226a1.76,1.76,0,0,0,1.759-1.759V339.6a1.761,1.761,0,0,0-1.759-1.757H287.009A1.761,1.761,0,0,0,285.25,339.6Z" transform="translate(-269.879 -310.241)" fill="#3f3d56"/>
    <path id="Path_4177" data-name="Path 4177" d="M291.76,345.284v35.685a.942.942,0,0,0,.94.94h53.321a.942.942,0,0,0,.94-.94V345.284a.942.942,0,0,0-.94-.942H292.7A.942.942,0,0,0,291.76,345.284Z" transform="translate(-275.117 -315.471)" fill="#fff"/>
    <path id="Path_4178" data-name="Path 4178" d="M341.86,598.251a.576.576,0,0,0,.453.217h31.722a.584.584,0,0,0,.571-.7l-.492-2.339a.585.585,0,0,0-.363-.424.566.566,0,0,0-.207-.039H342.8a.566.566,0,0,0-.207.039.585.585,0,0,0-.363.424l-.492,2.339A.583.583,0,0,0,341.86,598.251Z" transform="translate(-315.321 -517.118)" fill="#2f2e41"/>
    <path id="Path_4179" data-name="Path 4179" d="M354.336,367.865H304.444a.2.2,0,1,1,0-.4h49.892a.2.2,0,1,1,0,.4Z" transform="translate(-285.163 -334.078)" fill="#3f3d56"/>
    <ellipse id="Ellipse_78" data-name="Ellipse 78" cx="1.163" cy="1.189" rx="1.163" ry="1.189" transform="translate(21.515 30)" fill="#3f3d56"/>
    <ellipse id="Ellipse_79" data-name="Ellipse 79" cx="1.163" cy="1.189" rx="1.163" ry="1.189" transform="translate(25.531 30)" fill="#3f3d56"/>
    <ellipse id="Ellipse_80" data-name="Ellipse 80" cx="1.163" cy="1.189" rx="1.163" ry="1.189" transform="translate(29.548 30)" fill="#3f3d56"/>
    <path id="Path_4180" data-name="Path 4180" d="M535.591,351.622h-2.853a.216.216,0,0,0,0,.432h2.853a.216.216,0,0,0,0-.432Z" transform="translate(-468.836 -321.328)" fill="#3f3d56"/>
    <path id="Path_4181" data-name="Path 4181" d="M535.57,355.772h-2.853a.216.216,0,0,0,0,.432h2.853a.216.216,0,1,0,0-.432Z" transform="translate(-468.816 -324.667)" fill="#3f3d56"/>
    <path id="Path_4182" data-name="Path 4182" d="M535.591,359.922h-2.853a.216.216,0,0,0,0,.432h2.853a.216.216,0,0,0,0-.432Z" transform="translate(-468.836 -328.006)" fill="#3f3d56"/>
    <path id="Path_4183" data-name="Path 4183" d="M894.227,555.519a1.254,1.254,0,0,0,1.208.846l5.177-.133a1.237,1.237,0,0,0,1.169-.91l.732-7.833a1.913,1.913,0,0,0,.828.17,1.888,1.888,0,0,0-.095-3.775,1.6,1.6,0,0,0-.339.035,1.28,1.28,0,0,0-.952-.411l-7.963.206a1.138,1.138,0,0,0-.2.024,1.244,1.244,0,0,0-.952,1.615Zm8.436-8.562.521-1.867a1.272,1.272,0,0,0,0-.659c.025,0,.048-.012.073-.012a1.35,1.35,0,1,1,.063,2.7A1.271,1.271,0,0,1,902.663,546.957Z" transform="translate(-758.693 -475.719)" fill="#2f2e41"/>
    <path id="Path_4184" data-name="Path 4184" d="M897.978,543.738c.17.97,2.077,1.652,4.37,1.533,2.109-.1,3.833-.838,4.149-1.715a1.176,1.176,0,0,0-.36-.048l-7.963.206A1.144,1.144,0,0,0,897.978,543.738Z" transform="translate(-762.875 -475.718)" fill="#3f3d56"/>
    <path id="Path_4185" data-name="Path 4185" d="M921.811,575.971a.1.1,0,0,0,.03-.013l1.124-.736a.1.1,0,0,0,0-.163l-1.168-.765a.1.1,0,0,0-.107.163l1.044.684-1,.654a.1.1,0,0,0,.077.176Z" transform="translate(-781.918 -500.475)" fill="#6c63ff"/>
    <path id="Path_4186" data-name="Path 4186" d="M908.107,576.39a.1.1,0,0,0,.025-.179l-1.036-.594,1-.744a.1.1,0,0,0-.117-.157l-1.121.833a.1.1,0,0,0,.01.163l1.166.668A.1.1,0,0,0,908.107,576.39Z" transform="translate(-769.989 -500.812)" fill="#6c63ff"/>
    <path id="Path_4187" data-name="Path 4187" d="M914.859,574.663a.092.092,0,0,0,.027-.011.1.1,0,0,0,.033-.134l-1.594-2.62a.1.1,0,1,0-.167.1l1.594,2.62A.1.1,0,0,0,914.859,574.663Z" transform="translate(-775.078 -498.523)" fill="#6c63ff"/>
    <rect id="Rectangle_6759" data-name="Rectangle 6759" width="9.911" height="2.119" rx="1.06" transform="translate(40.915 44.573)" fill="url(#linear-gradient)"/>
    <rect id="Rectangle_6760" data-name="Rectangle 6760" width="19.978" height="2.119" rx="1.06" transform="translate(35.882 48.812)" fill="#e6e6e6"/>
    <rect id="Rectangle_6761" data-name="Rectangle 6761" width="19.978" height="2.119" rx="1.06" transform="translate(35.882 53.051)" fill="#e6e6e6"/>
    <path id="Path_4188" data-name="Path 4188" d="M497.3,496.017l.042.134,0,0,1.275,3.876,1.467,4.467,2.76,8.4.027,1.3v0l.205,10.49-.568,1.422.64,2.332s-.294-3.525-1.872-1.5c-.894,1.15-1.939,2.327-2.8,3.431q1.876.759,3.812,1.373c.279.089.56.174.84.259l.181.053a52.143,52.143,0,0,0,13.161,2.115c.232.007.459.011.68.016.078,0,.154,0,.23,0,.25,0,.5,0,.747,0q.756,0,1.5-.022A52.145,52.145,0,0,0,530.6,532.7c-.025-1.482-.091-3.214-.187-5.065-.045-.907-1.045-1.89-1.106-2.84-.042-.713.856-1.384.809-2.109-.3-4.461-.682-2.748-.963-5.907q-.043-.465-.08-.889c-.181-2.029-.305-3.3-.305-3.3l1.2-7.559,1.884-11.868-.145-.239-.163-.08-9.935-4.918-.539-1.382a2.146,2.146,0,0,0-1.982-1.358l-6.545-.027a2.136,2.136,0,0,0-1.741.885l-1.772,2.454Z" transform="translate(-440.494 -428.773)" fill="#3f3d56"/>
    <path id="Path_4189" data-name="Path 4189" d="M476.188,542.344l-1.482,3.172-1.012,2.167-1.741,9.115-.872.925-.747-3.275-7.816,1.735a6.651,6.651,0,0,1-.227-1.514c.045-.045.091-.089.138-.134.125-.116.23-.225.227-.33-.089-5.39.178-14.563,2.412-20.12a11.735,11.735,0,0,1,1.373-2.561c.045-.06.087-.12.129-.181,1.03-1.442,1.681-2.862,2.6-3.872v0a.109.109,0,0,0,.016-.016l.009-.007,6.34-3.362.272,7.642.194,5.493Z" transform="translate(-412.325 -460.09)" fill="#3f3d56"/>
    <path id="Path_4190" data-name="Path 4190" d="M650.391,543.565l1.852,3.962.646,1.38,1.741,9.114.869.923.748-3.274.352-.072,6.343-1.314,1.849,5.871a3.514,3.514,0,0,0-.637-4.4c-.126-.114-.231-.225-.228-.331.105-6.34-.283-17.916-3.785-22.68-1.112-1.512-1.779-3.018-2.75-4.07,0,0,0-.006-.006-.006l-2.363-3.869-.144-.237-.162-.081Z" transform="translate(-563.669 -460.411)" fill="#3f3d56"/>
    <ellipse id="Ellipse_5" data-name="Ellipse 5" cx="8.707" cy="8.707" rx="8.707" ry="8.707" transform="translate(66.798 37.112)" fill="#ffb6b6"/>
    <path id="Path_4191" data-name="Path 4191" d="M564.436,372.109a.735.735,0,0,0-.526-.233l.131-.363a.689.689,0,0,0-.774-.918l-.477.092.045-.319a.691.691,0,0,0-.924-.746.736.736,0,0,1-.633-.045.752.752,0,0,1-.375-.51l-.166-.8-.018-.043a6.22,6.22,0,0,0-4.268-2.689,18.319,18.319,0,0,0-5.106,0,4.668,4.668,0,0,0-2.04.516,1.784,1.784,0,0,0-.889,1.647,4.081,4.081,0,0,0-4.3,1.778,8.914,8.914,0,0,0-1.237,4.9,14.206,14.206,0,0,0,2.149,8.545c.109.156.137.483.354.592l-.045-.072c.242.121.489.317.4.526-.264.6,1.489,1.933,2.724,2.372a16.931,16.931,0,0,0,7.355.446l.074-.5c.76-.1,1.3-.3,1.446-.61.266-.227.492-.43.69-.617l0,0,.016-.014a3.277,3.277,0,0,0,1.272-2.224,6.379,6.379,0,0,0-.248-2.273c3.662.567-1.442-3.9,1.97-4.764a1.071,1.071,0,0,1,.119-.029c.1-.023.2-.047.3-.074a5.167,5.167,0,0,0,1.313-.561,5.052,5.052,0,0,0,1.761-2.218.67.67,0,0,0-.088-.788Z" transform="translate(-477.163 -332.372)" fill="#2f2e41"/>
    <path id="Path_4192" data-name="Path 4192" d="M514.507,573.592c0,.342-.006.821-.021,1.413q0,.123-.006.252c-.025,1.088-.051,2-.092,3.015,0,.07,0,.139-.008.209-.055,1.415-.141,3.062-.289,5.671-.276,4.819-.756.662-1.239,2.353-.023.084-.049.184-.072.3a5.457,5.457,0,0,1-.367,1.237c-.256.152-.52.3-.78.445-.741.412-1.493.809-2.251,1.186-.426.211-.854.418-1.284.617-.068.031-.135.063-.2.092a52.94,52.94,0,0,1-6.79,2.591c-.453.137-.9.27-1.362.393-.477.133-.954.258-1.436.375a52.154,52.154,0,0,1-10.96,1.483c-.5.016-1,.021-1.5.021-.25,0-.5,0-.746,0-.076,0-.152,0-.229,0l-.68-.016a52.118,52.118,0,0,1-13.161-2.116l-.182-.053c-.281-.086-.561-.17-.84-.26q-1.935-.613-3.812-1.372-1.433-.577-2.833-1.239a.066.066,0,0,1-.023-.012c-.2-.09-.393-.184-.588-.279l-.08-.041q-1.093-.533-2.163-1.118c-.6-1.378-1.444-1.641-1.968-2.853a5.054,5.054,0,0,1-.328-1.122s0-.008,0-.014c.055.727-.233-1.29,0-.008,0-.023,0-.049-.006-.078-.006-.07-.014-.156-.025-.264-.67-6.544-.627-14.028-.918-20.2q-.029-.6-.061-1.145c-.006-.121-.014-.24-.021-.358.014-.035.029-.072.047-.107a.2.2,0,0,1,.014-.029.313.313,0,0,1,.02-.035l.014-.02a.177.177,0,0,1,.01-.02c.018-.027.037-.057.059-.084.01-.012.018-.021.027-.031a.158.158,0,0,1,.023-.027.124.124,0,0,1,.021-.025l.025-.027a.059.059,0,0,1,.016-.016.4.4,0,0,1,.051-.049,1.879,1.879,0,0,1,.223-.176c.027-.018.057-.035.084-.055a3.737,3.737,0,0,1,.62-.3c.074-.027.148-.053.229-.08.029-.008.057-.018.086-.027s.086-.027.131-.037c.223-.066.463-.123.723-.176.031-.006.064-.012.1-.02s.1-.018.145-.025l.2-.035c.58-.092,1.239-.16,1.966-.205l.205-.012.242-.012c.068,0,.139-.006.209-.008s.139-.006.211-.008c.2-.006.4-.012.608-.016.59-.012,1.212-.008,1.864.006.3.008.612.016.928.029l.061,0c.276.01.553.021.838.037.2.01.4.019.6.031s.381.023.574.037c.151.008.3.02.453.029.129.01.258.02.387.027l.176.012c.1.008.191.014.289.023l.649.053.659.059c.221.019.444.041.666.063l.066.006.612.063c.047,0,.1.008.143.014.2.02.4.043.592.064l.182.019c.155.017.307.031.463.05.205.023.414.045.617.072.158.018.317.035.475.055.248.029.5.061.752.094.1.012.192.023.287.037.719.09,1.446.19,2.185.293,1.12.158,2.257.33,3.4.516s2.3.382,3.461.588c.293.053.586.105.881.16l.4.076c.227.041.453.084.68.127s.453.086.68.131l.811.158c1.776.352,3.543.727,5.266,1.12l.848.2q.844.2,1.673.4c.152.035.3.072.453.109.375.094.75.188,1.12.283l.065.018c.272.066.537.135.8.205q.941.246,1.851.5.6.167,1.194.338c.588.17,1.165.342,1.725.516l.414.127c.41.127.815.256,1.208.385.313.1.617.205.918.309s.6.207.885.311c.186.066.369.137.553.2.264.1.524.2.778.293.078.029.154.061.231.09.049.021.1.039.143.059.092.037.186.072.276.109s.182.072.272.111.178.072.264.109.174.072.26.111.143.061.211.092c.139.061.277.121.412.184l.2.092.152.07c.021.012.043.022.064.031l.148.072c.113.053.225.109.334.162.147.074.289.148.426.221s.274.148.4.221l.063.035.088.049c.1.057.2.115.291.172.188.115.365.229.531.342.037.025.072.051.109.074.123.088.24.174.35.262,0,0,0,0,0,0,.037.027.072.057.107.084s.061.051.09.078c.1.088.2.172.281.258a1.11,1.11,0,0,1,.082.084.237.237,0,0,1,.031.031c.039.039.074.078.107.117a.112.112,0,0,1,.014.018c.047.055.09.109.131.164.02.027.041.055.059.082s.047.068.066.1.033.057.049.084a1.422,1.422,0,0,1,.106.221,1.026,1.026,0,0,1,.053.16A1.153,1.153,0,0,1,514.507,573.592Z" transform="translate(-408.207 -489.818)" fill="url(#linear-gradient)"/>
    <path id="Path_4193" data-name="Path 4193" d="M514.5,573.6c0,.342-.006.821-.021,1.413,0,.082-.006.166-.008.252-.02.831-.049,1.856-.09,3.015,0,.07,0,.139-.008.209-.055,1.415-.141,3.062-.289,5.671-.276,4.819-.756.662-1.239,2.353-1.34-.825-2.81-1.688-4.381-2.576l-.858-.483c-3.142-1.753-6.652-3.59-10.316-5.409-.145-.072-.291-.145-.436-.215a260.936,260.936,0,0,0-24.975-10.876c-1.432-.52-2.8-.989-4.086-1.4a45.384,45.384,0,0,0-6.851-1.733c-1.876-.274-3.172-.176-3.7.389q-.029-.6-.061-1.145-.012-.182-.023-.358c.012-.032.028-.063.043-.094l.006-.014a.2.2,0,0,1,.014-.029.312.312,0,0,1,.02-.035.2.2,0,0,1,.023-.039c.018-.027.037-.057.059-.084a.658.658,0,0,1,.051-.059.122.122,0,0,1,.021-.025l.025-.027a.058.058,0,0,1,.016-.016.4.4,0,0,1,.051-.049,1.872,1.872,0,0,1,.223-.176c.027-.018.057-.035.084-.055a3.743,3.743,0,0,1,.619-.3c.074-.027.149-.053.229-.08.029-.008.057-.018.086-.027s.086-.027.131-.037c.223-.066.463-.123.723-.176.078-.016.16-.031.242-.045l.2-.035c.58-.092,1.239-.16,1.966-.205l.205-.012.242-.012c.068,0,.139-.006.209-.008s.139-.006.211-.008c.2-.006.4-.012.608-.016.59-.01,1.212-.006,1.864.008.3.006.612.016.928.029l.061,0c.276.008.555.021.838.035.2.01.4.019.6.031s.381.023.574.037c.15.008.3.02.453.029.129.01.258.02.387.027l.465.035.649.053.659.059c.221.02.444.041.666.063l.066.006.612.063q1.706.173,3.512.4,1.079.138,2.185.3c1.12.158,2.257.33,3.4.514s2.3.382,3.461.588c.293.053.586.106.881.16q.539.1,1.079.2c.227.043.453.086.68.131l.811.158c1.776.352,3.543.727,5.266,1.12l.848.2q.844.2,1.673.4l.453.111q.566.141,1.12.281v0c.021,0,.043.01.065.016.27.068.537.137.8.207q.941.246,1.851.5c.4.113.8.225,1.194.338.588.172,1.165.344,1.725.516l.414.127q.616.193,1.208.385c.313.1.617.205.918.309s.6.207.885.311c.188.066.371.135.553.2.266.1.524.2.778.3.078.029.154.061.231.09.143.055.281.111.418.168.092.035.182.072.272.111s.178.072.264.109.174.072.26.111.143.061.211.092c.139.061.277.121.412.184l.2.092.152.07c.021.012.043.022.064.031.166.078.326.156.483.234s.289.148.426.221c.162.086.317.17.465.256l.088.049c.1.057.2.115.291.172.188.115.365.229.532.342s.317.225.459.336c0,0,0,0,0,0,.068.055.135.109.2.162.1.088.2.172.281.258a1.11,1.11,0,0,1,.082.084.23.23,0,0,1,.031.031c.041.045.082.09.121.135s.09.109.131.164c.02.027.041.055.059.082s.047.068.066.1.033.057.049.084a1.428,1.428,0,0,1,.106.221,1.2,1.2,0,0,1,.053.16A1.147,1.147,0,0,1,514.5,573.6Z" transform="translate(-408.199 -489.824)" opacity="0.2" fill="url(#linear-gradient-5)"/>
  </g>
</svg>
