<svg xmlns="http://www.w3.org/2000/svg" width="95.096" height="65.52" viewBox="0 0 95.096 65.52">
  <g id="Group_10285" data-name="Group 10285" transform="translate(-689 -885.74)">
    <g id="Group_10282" data-name="Group 10282" transform="translate(689 885.74)">
      <path id="Path_4044" data-name="Path 4044" d="M87.259,5.13H.67a6.151,6.151,0,0,1,.695-1.944A6.225,6.225,0,0,1,6.794,0H81.135a6.222,6.222,0,0,1,5.427,3.186A6.153,6.153,0,0,1,87.259,5.13Z" transform="translate(-0.574)" fill="#f2f2f2"/>
      <path id="Path_4046" data-name="Path 4046" d="M197.322,200.867H156.845a.887.887,0,0,1,0-1.727h40.477a.887.887,0,0,1,0,1.727Z" transform="translate(-133.694 -170.487)" fill="#e6e6e6"/>
      <path id="Path_4047" data-name="Path 4047" d="M86.685,5.13a6.154,6.154,0,0,0-.7-1.944A6.222,6.222,0,0,0,80.562,0H6.22A6.225,6.225,0,0,0,.791,3.186,6.212,6.212,0,0,0,0,6.22V59.232a6.227,6.227,0,0,0,6.22,6.22H80.562a6.223,6.223,0,0,0,6.22-6.22V6.22A6.2,6.2,0,0,0,86.685,5.13Zm-.191,54.1A5.934,5.934,0,0,1,81.37,65.11a5.994,5.994,0,0,1-.809.055H15.056A14.769,14.769,0,0,1,.288,50.395V6.22a5.925,5.925,0,0,1,.1-1.091,5.866,5.866,0,0,1,.734-1.944,5.929,5.929,0,0,1,5.1-2.9H80.562a5.929,5.929,0,0,1,5.1,2.9,5.866,5.866,0,0,1,.734,1.944,5.925,5.925,0,0,1,.1,1.091Z" fill="#08205e"/>
      <g id="Group_10281" data-name="Group 10281" transform="translate(70.708 24.049)">
        <path id="Path_4048" data-name="Path 4048" d="M573.029,200.629l-.487-1.785,2.191-.811.243,1.623Z" transform="translate(-560.87 -193.587)" fill="#ffb6b6"/>
        <path id="Path_4049" data-name="Path 4049" d="M573.029,202.219l-.487-1.785,1.29-.544-.4,2.1Z" transform="translate(-560.87 -195.177)" opacity="0.1" style="mix-blend-mode: normal;isolation: isolate"/>
        <g id="Group_10279" data-name="Group 10279" transform="translate(5.417 6.531)">
          <path id="Path_4050" data-name="Path 4050" d="M529.393,239.951c-.418-.249-.441-.984-.049-1.642a1.916,1.916,0,0,1,.624-.655l.23-.375,2.907-5.211s1.272-4.915,1.79-5.509a1.435,1.435,0,0,1,1.267-.454l.664.59-2.371,6.961-2.926,4.121-.392.573a1.916,1.916,0,0,1-.278.861c-.391.658-1.048.989-1.466.74Z" transform="translate(-529.064 -224.14)" fill="#ffb6b6"/>
          <path id="Path_4051" data-name="Path 4051" d="M554.543,212.534a2,2,0,0,1,1.508.682c.583.718-2.473,8.813-2.473,8.813l-2.489-.088,3.454-9.407Z" transform="translate(-547.92 -212.533)" fill="#1d4d9d"/>
        </g>
        <circle id="Ellipse_19" data-name="Ellipse 19" cx="2.272" cy="2.272" r="2.272" transform="translate(10.009 0.996)" fill="#ffb6b6"/>
        <path id="Path_4052" data-name="Path 4052" d="M523.415,416.7l-1.542,3.814-.893-.893-.325-1.7,1.3-1.623Z" transform="translate(-516.449 -380.444)" fill="#ffb6b6"/>
        <path id="Path_4053" data-name="Path 4053" d="M630.564,409.526l1.542,1.785-.73,1.461-1.623-.243-.811-2.272Z" transform="translate(-609.153 -374.65)" fill="#ffb6b6"/>
        <path id="Path_4054" data-name="Path 4054" d="M567.669,261.48l-.2,3.287,5.031-.893-.325-2.029Z" transform="translate(-556.524 -247.906)" fill="#ffb6b6"/>
        <path id="Path_4055" data-name="Path 4055" d="M532.179,274.705l5.072-1.664s1.866,3.733-.162,6.086-8.764,15.743-8.764,15.743L526.3,293.9l2.921-8.521,3.246-7.871-.284-2.8Z" transform="translate(-521.277 -257.804)" fill="#08205e"/>
        <path id="Path_4056" data-name="Path 4056" d="M579.578,305.753l1.948,8.521,4.057,6.573-2.11,1.217-5.68-7.79-1.866-6.005Z" transform="translate(-563.766 -285.809)" fill="#08205e"/>
        <path id="Path_4057" data-name="Path 4057" d="M494.894,423.6h-1.405s-1.64-.649-2.024,0,1.715,2.49,1.715,2.49a18.4,18.4,0,0,0,3.338,1.567c.406-.081.568-1.055.568-1.055l.487-1.136-.73.243a1.494,1.494,0,0,1-.73-1.542l-1.217-.568Z" transform="translate(-491.417 -386.453)" fill="#2f2e41"/>
        <path id="Path_4058" data-name="Path 4058" d="M624.109,418.8v-.811l.943.811a.988.988,0,0,1,.355,1.785c-1.217,1.217-2.759,2.516-2.759,2.516s-2.434.649-2.6-.081a1.6,1.6,0,0,1,0-1.026l.893-.435.811-2.11,1.3.162,1.055-.811Z" transform="translate(-601.481 -381.893)" fill="#2f2e41"/>
        <path id="Path_4059" data-name="Path 4059" d="M562.011,170.855l-.73-.081-1.339-1.339s-1.217.649-1.217.162c0-2.272,1.38-2.191,2.516-2.353s1.014-.2,1.38.406c.167.278.771.446.771.446s1.136-1.542,1.7.325-.162,7.628.406,8.115-2.332.973-2.018-.934.882-4.828.558-5.477-.406-.487-.406-.487c.4-.164.665,2.729-.852,2.87l-.041-1.41s-.243-.73-.73-.243Z" transform="translate(-549.04 -167.14)" fill="#2f2e41"/>
        <path id="Path_4060" data-name="Path 4060" d="M563.254,206.62l2.434-.974,3.246,9.738-6.679-.243-.6-2.906a3.531,3.531,0,0,1-.1-2.405c.487-.893,1.7-3.209,1.7-3.209Z" transform="translate(-551.297 -200.105)" fill="#1d4d9d"/>
        <g id="Group_10280" data-name="Group 10280" transform="translate(14.188 5.926)">
          <path id="Path_4061" data-name="Path 4061" d="M602.077,235.37c-.485.042-.932-.543-1-1.305a1.915,1.915,0,0,1,.125-.9l-.032-.439L600.5,226.8a46.748,46.748,0,0,1-1.184-5.634,3,3,0,0,1,.192-.993l.884.092,2.132,7.038.025,5.054.016.695a1.914,1.914,0,0,1,.276.861c.066.762-.275,1.414-.76,1.456Z" transform="translate(-597.974 -218.47)" fill="#ffb6b6"/>
          <path id="Path_4062" data-name="Path 4062" d="M590.026,208.711a2,2,0,0,1,1.623-.325c.893.243,3.129,8.6,3.129,8.6l-2.074,1.38Z" transform="translate(-590.026 -208.326)" fill="#1d4d9d"/>
        </g>
      </g>
      <path id="Path_4063" data-name="Path 4063" d="M231.874,290.026h-9.735a1.079,1.079,0,0,1-1.077-1.077v-.974a1.079,1.079,0,0,1,1.077-1.077h9.735a1.079,1.079,0,0,1,1.077,1.077v.974A1.079,1.079,0,0,1,231.874,290.026Z" transform="translate(-189.254 -245.617)" fill="#1d4d9d"/>
      <path id="Path_4064" data-name="Path 4064" d="M491.874,68.9h-9.735a1.079,1.079,0,0,1-1.077-1.077v-.974a1.079,1.079,0,0,1,1.077-1.077h9.735a1.079,1.079,0,0,1,1.077,1.077v.974A1.079,1.079,0,0,1,491.874,68.9Z" transform="translate(-411.844 -56.306)" fill="#1d4d9d"/>
      <path id="Path_4065" data-name="Path 4065" d="M331.813,289.67h-9.735a1.151,1.151,0,0,1-1.149-1.149v-.974a1.151,1.151,0,0,1,1.149-1.149h9.735a1.151,1.151,0,0,1,1.149,1.149v.974A1.151,1.151,0,0,1,331.813,289.67Zm-9.735-2.984a.863.863,0,0,0-.862.861v.974a.863.863,0,0,0,.862.862h9.735a.863.863,0,0,0,.862-.862v-.974a.863.863,0,0,0-.862-.861Z" transform="translate(-274.752 -245.189)" fill="#1d4d9d"/>
      <path id="Path_4066" data-name="Path 4066" d="M169.648,169.867H118.425a.863.863,0,1,1,0-1.727h51.223a.863.863,0,1,1,0,1.727Z" transform="translate(-100.646 -143.947)" fill="#e6e6e6"/>
      <path id="Path_4067" data-name="Path 4067" d="M57.228,72.367H50.753a.863.863,0,1,1,0-1.727h6.475a.863.863,0,1,1,0,1.727Z" transform="translate(-42.712 -60.476)" fill="#e6e6e6"/>
      <path id="Path_4068" data-name="Path 4068" d="M326.228,72.367h-6.475a.863.863,0,1,1,0-1.727h6.475a.863.863,0,0,1,0,1.727Z" transform="translate(-273.006 -60.476)" fill="#e6e6e6"/>
      <path id="Path_4069" data-name="Path 4069" d="M411.228,72.367h-6.475a.863.863,0,1,1,0-1.727h6.475a.863.863,0,0,1,0,1.727Z" transform="translate(-345.776 -60.476)" fill="#e6e6e6"/>
      <path id="Path_4070" data-name="Path 4070" d="M225.914,231.867H197.425a.863.863,0,1,1,0-1.727h28.489a.863.863,0,0,1,0,1.727Z" transform="translate(-168.279 -197.026)" fill="#e6e6e6"/>
      <path id="Path_4071" data-name="Path 4071" d="M221.8,367.184H190.828a.522.522,0,0,1,0-1.044H221.8a.522.522,0,0,1,0,1.044Z" transform="translate(-162.923 -313.458)" fill="#e6e6e6"/>
      <path id="Path_4072" data-name="Path 4072" d="M223.8,15.184H192.831a.522.522,0,1,1,0-1.044H223.8a.522.522,0,0,1,0,1.044Z" transform="translate(-164.639 -12.105)" fill="#fff"/>
    </g>
  </g>
</svg>
