<svg xmlns="http://www.w3.org/2000/svg" xmlns:xlink="http://www.w3.org/1999/xlink" width="117.541" height="57.374" viewBox="0 0 117.541 57.374">
  <defs>
    <linearGradient id="linear-gradient" x1="0.5" x2="0.5" y2="1" gradientUnits="objectBoundingBox">
      <stop offset="0" stop-color="#86b3ff"/>
      <stop offset="1" stop-color="#64c6ff"/>
    </linearGradient>
  </defs>
  <g id="Group_10278" data-name="Group 10278" transform="translate(-4.218 -34.593)">
    <g id="Group_10269" data-name="Group 10269" transform="translate(4.218 34.593)">
      <path id="Path_3965" data-name="Path 3965" d="M0,416.909c0,.116.132.209.3.209H117.243c.165,0,.3-.093.3-.209s-.132-.209-.3-.209H.3C.134,416.7,0,416.793,0,416.909Z" transform="translate(0 -365.135)" fill="#2f2e43"/>
      <path id="Path_3966" data-name="Path 3966" d="M240.191,52.07H162.66V2.142A2.144,2.144,0,0,1,164.8,0h73.247a2.144,2.144,0,0,1,2.142,2.142Z" transform="translate(-142.531)" fill="#08205e"/>
      <path id="Path_3967" data-name="Path 3967" d="M194.756,424.2H104.125a.68.68,0,0,1-.354-1.26l7.065-4.31h77.493l.022.014,6.771,4.3a.68.68,0,0,1-.364,1.254Z" transform="translate(-90.642 -366.826)" fill="#dfdfdf"/>
      <rect id="Rectangle_6634" data-name="Rectangle 6634" width="73.376" height="45.617" transform="translate(22.162 3.183)" fill="url(#linear-gradient)"/>
      <path id="Path_3968" data-name="Path 3968" d="M237.77,419.156H159.09L162.979,416h71.078Z" transform="translate(-139.403 -364.521)" fill="#08205e"/>
      <path id="Path_3969" data-name="Path 3969" d="M362.137,443.621H324.83l1.414-2.121h34.478Z" transform="translate(-284.633 -386.866)" fill="#08205e"/>
      <path id="Path_3970" data-name="Path 3970" d="M621.42,162.815h-3.887a.613.613,0,1,1,0-1.225h3.887a.613.613,0,0,1,0,1.225Z" transform="translate(-540.578 -141.594)" fill="#dfdfdf"/>
      <path id="Path_3971" data-name="Path 3971" d="M672.217,162.815H670.4a.613.613,0,1,1,0-1.225h1.814a.613.613,0,1,1,0,1.225Z" transform="translate(-586.905 -141.594)" fill="#dfdfdf"/>
      <path id="Path_3972" data-name="Path 3972" d="M247.275,159.76h-11.83a1.1,1.1,0,0,1,0-2.19h11.83a1.1,1.1,0,0,1,0,2.19Z" transform="translate(-205.35 -138.071)" fill="#1d4d9d"/>
      <path id="Path_3973" data-name="Path 3973" d="M241.869,189.416h-5.7a.668.668,0,0,1,0-1.336h5.7a.668.668,0,1,1,0,1.336Z" transform="translate(-206.358 -164.806)" fill="#dfdfdf"/>
      <path id="Path_3974" data-name="Path 3974" d="M272.282,210.726H235.008a.668.668,0,1,1,0-1.336h37.274a.668.668,0,1,1,0,1.336Z" transform="translate(-205.341 -183.479)" fill="#dfdfdf"/>
      <path id="Path_3975" data-name="Path 3975" d="M269.076,225.126H235.008a.668.668,0,1,1,0-1.336h34.066a.668.668,0,0,1,0,1.336Z" transform="translate(-205.341 -196.097)" fill="#dfdfdf"/>
      <path id="Path_3976" data-name="Path 3976" d="M825.842,137.845l-1.822.6V135.82h1.653Z" transform="translate(-722.05 -119.013)" fill="#f2a7aa"/>
      <ellipse id="Ellipse_2" data-name="Ellipse 2" cx="1.815" cy="1.815" rx="1.815" ry="1.815" transform="translate(100.38 13.903)" fill="#f2a7aa"/>
      <path id="Path_3977" data-name="Path 3977" d="M815.421,108.5c-.3-.009-.5-.317-.621-.6s-.24-.6-.521-.719c-.23-.1-.637.544-.819.375s-.005-1.09.2-1.254a1.241,1.241,0,0,1,.736-.208,7.568,7.568,0,0,1,1.89.151,1.641,1.641,0,0,1,1.521,1.856,2.751,2.751,0,0,1-.25,1.482,1.217,1.217,0,0,1-1.259.658,3.246,3.246,0,0,1,.02-.819,1.15,1.15,0,0,0-.167-.786.5.5,0,0,0-.718-.11" transform="translate(-712.727 -92.965)" fill="#36344e"/>
      <path id="Path_3978" data-name="Path 3978" d="M845.855,129.087a.9.9,0,0,1,.622-.217.629.629,0,0,1,.507.464.807.807,0,0,1-.157.687,1.148,1.148,0,0,1-.606.384.634.634,0,0,1-.415,0,.423.423,0,0,1-.219-.52" transform="translate(-740.928 -112.919)" fill="#36344e"/>
      <rect id="Rectangle_6635" data-name="Rectangle 6635" width="1.706" height="2.42" transform="translate(101.484 48.014)" fill="#f2a7aa"/>
      <path id="Path_3979" data-name="Path 3979" d="M794.87,399.826c-.179,0-.339,0-.459-.016a2.139,2.139,0,0,1-1.1-.572.308.308,0,0,1-.078-.349h0a.306.306,0,0,1,.2-.177l1.2-.343,1.939-1.309.021.038a3.481,3.481,0,0,1,.262.589.265.265,0,0,1-.019.219.209.209,0,0,1-.09.076.885.885,0,0,0,.484.166.537.537,0,0,0,.6-.455l0-.017.015-.01c.235-.152.38-.22.431-.205.031.01.083.025.224,1.422a1.434,1.434,0,0,1,.046.672c-.073.334-1.533.219-1.825.193-.009,0-1.1.079-1.851.079Z" transform="translate(-695.048 -347.925)" fill="#36344e"/>
      <rect id="Rectangle_6636" data-name="Rectangle 6636" width="1.706" height="2.42" transform="translate(106.601 47.013) rotate(-31.95)" fill="#f2a7aa"/>
      <path id="Path_3980" data-name="Path 3980" d="M852.149,387.066a2.993,2.993,0,0,1-.516-.047.309.309,0,0,1-.251-.255h0a.309.309,0,0,1,.075-.256l.835-.924.953-2.137.038.021a3.378,3.378,0,0,1,.535.361.262.262,0,0,1,.1.2.2.2,0,0,1-.036.111.9.9,0,0,0,.5-.116.538.538,0,0,0,.271-.707l-.006-.016.007-.016c.12-.254.205-.389.256-.4.031-.009.084-.022.942,1.088a1.437,1.437,0,0,1,.395.547c.115.322-1.185,1-1.447,1.13a23.011,23.011,0,0,1-1.927,1.276,1.63,1.63,0,0,1-.723.146Z" transform="translate(-746.022 -335.497)" fill="#36344e"/>
      <path id="Path_3981" data-name="Path 3981" d="M807.141,224.38h-4.778l-.433,4.445,1.9,16.423h2.439l-.975-9.485,3.956,8.563,2.168-1.517-3.09-7.994s1.1-6.964.236-8.7S807.141,224.38,807.141,224.38Z" transform="translate(-702.693 -196.614)" fill="#36344e"/>
      <path id="Path_3982" data-name="Path 3982" d="M809.508,157.109H801.92L804.2,147.3H807.5Z" transform="translate(-702.685 -129.072)" fill="#1d4d9d"/>
      <path id="uuid-52db3307-ec3e-496d-a5d4-9d1f33ffc652" d="M786.455,137.046c-.121-.6.1-1.142.495-1.218s.812.346.933.944a1.475,1.475,0,0,1-.023.719l.48,2.536-1.24.2-.342-2.519a1.5,1.5,0,0,1-.3-.657h0Z" transform="translate(-689.104 -119.012)" fill="#f2a7aa"/>
      <path id="Path_3983" data-name="Path 3983" d="M795.04,147.3h-2.915l-1.965,3.931-.741-2.945-1.629.173s.385,5.755,2.07,5.561,5.613-5.381,5.181-6.719Z" transform="translate(-690.303 -129.072)" fill="#1d4d9d"/>
      <path id="uuid-2800d917-a06e-4fc6-b661-0f9df9cadefc" d="M859.355,245.617c.121.6-.1,1.142-.495,1.218s-.812-.346-.933-.944a1.474,1.474,0,0,1,.024-.719l-.48-2.536,1.24-.2.342,2.52a1.5,1.5,0,0,1,.3.657Z" transform="translate(-751.361 -212.439)" fill="#f2a7aa"/>
      <path id="Path_3984" data-name="Path 3984" d="M832.941,147.078a14.336,14.336,0,0,1,1.742,0c.452.37,3.1,13.694,3.1,13.694h-1.68l-3.168-13.694Z" transform="translate(-729.866 -128.85)" fill="#1d4d9d"/>
    </g>
  </g>
</svg>
