<svg xmlns="http://www.w3.org/2000/svg" xmlns:xlink="http://www.w3.org/1999/xlink" width="99.511" height="107.978" viewBox="0 0 99.511 107.978">
  <defs>
    <linearGradient id="linear-gradient" x1="0.5" x2="0.5" y2="1" gradientUnits="objectBoundingBox">
      <stop offset="0" stop-color="#86b3ff"/>
      <stop offset="1" stop-color="#64c6ff"/>
    </linearGradient>
  </defs>
  <g id="Group_10329" data-name="Group 10329" transform="translate(0 0.5)">
    <path id="Path_4140" data-name="Path 4140" d="M509.134,521.692s19.342-2.321,26.112-6,57.06-5.416,57.06,6-57.834,16.441-57.834,16.441L504.1,536.393Z" transform="translate(-493.182 -448.838)" fill="#fbbebe"/>
    <path id="Path_4141" data-name="Path 4141" d="M509.134,521.692s19.342-2.321,26.112-6,57.06-5.416,57.06,6-57.834,16.441-57.834,16.441L504.1,536.393Z" transform="translate(-493.182 -448.838)" opacity="0.1"/>
    <path id="Path_4142" data-name="Path 4142" d="M178.561,522.1l-1.294,11.8L157,534.673V517.265s7.762-5.609,13.922,6.383C170.922,523.648,178.191,520.94,178.561,522.1Z" transform="translate(-157 -451.374)" fill="url(#linear-gradient)"/>
    <path id="Path_4143" data-name="Path 4143" d="M178.561,521.985l-1.294,11.8L157,534.557V517.149s7.762-5.609,13.922,6.383C170.922,523.532,178.191,520.824,178.561,521.985Z" transform="translate(-157 -451.277)" opacity="0.1"/>
    <path id="Path_4144" data-name="Path 4144" d="M754.678,446.7c0,.659-1.478,1.149-1.624,1.785s.734,1.59.456,2.192a11.925,11.925,0,0,1-1.015,1.764c-.364.521-1.489.445-1.95.934a15.5,15.5,0,0,1-1.432,1.246c-.489.407-1.152.492-1.709.867-.529.356-.465,1.663-1.05,1.987-.559.31-1.415.061-2.022.339-.582.267-.889,1.235-1.512,1.471-.6.228-1.344.13-1.978.327-.614.191-1.3.16-1.945.321-.625.156-1.1,1.093-1.753,1.22-.634.123-1.376-.205-2.031-.112-.64.091-1.384-.719-2.042-.657s-1.251.435-1.911.465-1.286.315-1.946.315-1.341.619-1.987.589-1.257-.968-1.9-1.028-1.443.919-2.083.828c-.655-.093-1.174-1.052-1.807-1.176-.65-.126-1.49.559-2.116.4-.644-.161-1.026-1.277-1.64-1.468-.635-.2-1.422.07-2.022-.158-.623-.237-1.381-.2-1.964-.466-.607-.279-1.042-.938-1.6-1.248-.585-.324-.855-1.129-1.384-1.485-.557-.375-1.4-.327-1.894-.734-.517-.43-1.485-.452-1.921-.914a14.506,14.506,0,0,1-1.012-1.831c-.383-.549.369-1.71.1-2.29-.278-.6-1.439-.847-1.583-1.478a9.273,9.273,0,0,1-.228-2.007c0-.659.993-1.163,1.139-1.8s-.587-1.537-.309-2.139c.268-.581.234-1.473.617-2.022.364-.521,1.273-.726,1.734-1.215.436-.462,1.216-.591,1.733-1.021.489-.407.427-1.634.983-2.009.529-.356,1.268-.519,1.853-.843.559-.31,1.351-.258,1.957-.536.582-.267,1.494.26,2.117.023.6-.228,1.087-.727,1.722-.924.614-.191.9-1.65,1.547-1.811.625-.156,1.394.1,2.044-.023.634-.123,1.486,1.027,2.141.934.64-.091,1.118-1.627,1.776-1.688s1.37.736,2.03.705,1.3.436,1.956.436,1.317-.64,1.964-.61,1.241.876,1.885.936,1.466-1.225,2.106-1.134c.655.093,1.161,1.087,1.795,1.21.65.126,1.465-.491,2.09-.334.644.161,1.031,1.218,1.646,1.409.635.2,1.026.943,1.626,1.171.623.237,1.779-.87,2.362-.6.607.279,1.131.761,1.69,1.071.585.324,1.516.161,2.045.518.557.375.693,1.38,1.183,1.788.517.43,1.369.559,1.8,1.021.461.489.525,1.365.889,1.886a11.118,11.118,0,0,1,.639,1.89c.278.6,1.02,1.058,1.164,1.688A10.128,10.128,0,0,1,754.678,446.7Z" transform="translate(-660.361 -380.909)" fill="#3f3d56"/>
    <path id="Path_4145" data-name="Path 4145" d="M578.8,555.8s21.857-11.219,35.977-6.963,33.849-3.095,36.17-.58,5.609,29.594-22.244,31.141a187.76,187.76,0,0,1-51.644-4.642Z" transform="translate(-554.141 -477.912)" fill="#fbbebe"/>
    <path id="Path_4146" data-name="Path 4146" d="M181.662,556.669s3.242-.546,3.1,2.549-.291,27.079-1.163,27.66-7.775.58-10.609.58H157V550.376s11.336-1.8,17,5.747C174,556.123,180.818,555.861,181.662,556.669Z" transform="translate(-157 -479.98)" fill="url(#linear-gradient)"/>
    <path id="Path_4147" data-name="Path 4147" d="M781.07,236.779a4.445,4.445,0,0,0-3.832,2.679c-.958,2.316.276,5.037,2.127,6.725s4.231,2.654,6.392,3.923a17.134,17.134,0,0,1,6.965,7.107,10.515,10.515,0,0,1-.1,9.7c-1.585,2.693-4.467,4.3-7.215,5.791" transform="translate(-721.138 -218.091)" fill="none" stroke="#3f3d56" stroke-width="1"/>
    <path id="Path_4148" data-name="Path 4148" d="M828.135,150.885a4.446,4.446,0,0,0-3.832,2.679c-.958,2.316.276,5.037,2.128,6.725s4.231,2.654,6.392,3.923a17.134,17.134,0,0,1,6.965,7.107,10.515,10.515,0,0,1-.1,9.7c-1.585,2.693-4.467,4.3-7.215,5.791" transform="translate(-760.466 -146.318)" fill="none" stroke="#3f3d56" stroke-width="1"/>
    <path id="Path_4149" data-name="Path 4149" d="M909.69,166.663a4.445,4.445,0,0,0-4.67-.227c-2.175,1.245-2.865,4.151-2.435,6.62s1.721,4.689,2.653,7.015a17.134,17.134,0,0,1,1.156,9.883,10.515,10.515,0,0,1-6.018,7.609c-2.9,1.159-6.167.669-9.25.162" transform="translate(-816.582 -158.848)" fill="none" stroke="#3f3d56" stroke-width="1"/>
    <ellipse id="Ellipse_33" data-name="Ellipse 33" cx="4.642" cy="2.255" rx="4.642" ry="2.255" transform="translate(66.048 32.495)" fill="url(#linear-gradient)"/>
    <ellipse id="Ellipse_34" data-name="Ellipse 34" cx="4.642" cy="2.255" rx="4.642" ry="2.255" transform="translate(65.468 32.108)" fill="none" stroke="#3f3d56" stroke-width="1"/>
    <ellipse id="Ellipse_35" data-name="Ellipse 35" cx="4.642" cy="2.255" rx="4.642" ry="2.255" transform="translate(76.106 30.561)" fill="url(#linear-gradient)"/>
    <ellipse id="Ellipse_36" data-name="Ellipse 36" cx="4.642" cy="2.255" rx="4.642" ry="2.255" transform="translate(75.526 30.174)" fill="none" stroke="#3f3d56" stroke-width="1"/>
    <ellipse id="Ellipse_37" data-name="Ellipse 37" cx="4.642" cy="2.255" rx="4.642" ry="2.255" transform="translate(77.654 39.072)" fill="url(#linear-gradient)"/>
    <ellipse id="Ellipse_38" data-name="Ellipse 38" cx="4.642" cy="2.255" rx="4.642" ry="2.255" transform="translate(77.074 38.685)" fill="none" stroke="#3f3d56" stroke-width="1"/>
    <ellipse id="Ellipse_39" data-name="Ellipse 39" cx="4.642" cy="2.255" rx="4.642" ry="2.255" transform="translate(76.687 17.795)" fill="url(#linear-gradient)"/>
    <ellipse id="Ellipse_40" data-name="Ellipse 40" cx="4.642" cy="2.255" rx="4.642" ry="2.255" transform="translate(76.106 17.408)" fill="none" stroke="#3f3d56" stroke-width="1"/>
    <ellipse id="Ellipse_41" data-name="Ellipse 41" cx="4.642" cy="2.255" rx="4.642" ry="2.255" transform="translate(65.081 16.441)" fill="url(#linear-gradient)"/>
    <ellipse id="Ellipse_42" data-name="Ellipse 42" cx="4.642" cy="2.255" rx="4.642" ry="2.255" transform="translate(64.501 16.054)" fill="none" stroke="#3f3d56" stroke-width="1"/>
    <ellipse id="Ellipse_43" data-name="Ellipse 43" cx="4.642" cy="2.255" rx="4.642" ry="2.255" transform="translate(70.304 11.605)" fill="url(#linear-gradient)"/>
    <ellipse id="Ellipse_44" data-name="Ellipse 44" cx="4.642" cy="2.255" rx="4.642" ry="2.255" transform="translate(69.723 11.218)" fill="none" stroke="#3f3d56" stroke-width="1"/>
    <ellipse id="Ellipse_45" data-name="Ellipse 45" cx="4.642" cy="2.255" rx="4.642" ry="2.255" transform="translate(81.716 12.572)" fill="url(#linear-gradient)"/>
    <ellipse id="Ellipse_46" data-name="Ellipse 46" cx="4.642" cy="2.255" rx="4.642" ry="2.255" transform="translate(81.135 12.186)" fill="none" stroke="#3f3d56" stroke-width="1"/>
    <ellipse id="Ellipse_47" data-name="Ellipse 47" cx="4.642" cy="2.255" rx="4.642" ry="2.255" transform="translate(90.226 18.955)" fill="url(#linear-gradient)"/>
    <ellipse id="Ellipse_48" data-name="Ellipse 48" cx="4.642" cy="2.255" rx="4.642" ry="2.255" transform="translate(89.646 18.569)" fill="none" stroke="#3f3d56" stroke-width="1"/>
    <ellipse id="Ellipse_49" data-name="Ellipse 49" cx="4.642" cy="2.255" rx="4.642" ry="2.255" transform="translate(60.246 7.737)" fill="url(#linear-gradient)"/>
    <ellipse id="Ellipse_50" data-name="Ellipse 50" cx="4.642" cy="2.255" rx="4.642" ry="2.255" transform="translate(59.665 7.35)" fill="none" stroke="#3f3d56" stroke-width="1"/>
    <ellipse id="Ellipse_51" data-name="Ellipse 51" cx="4.642" cy="2.255" rx="4.642" ry="2.255" transform="translate(63.147 0.387)" fill="url(#linear-gradient)"/>
    <ellipse id="Ellipse_52" data-name="Ellipse 52" cx="4.642" cy="2.255" rx="4.642" ry="2.255" transform="translate(62.567 0)" fill="none" stroke="#3f3d56" stroke-width="1"/>
    <ellipse id="Ellipse_53" data-name="Ellipse 53" cx="4.642" cy="2.255" rx="4.642" ry="2.255" transform="translate(90.033 5.803)" fill="url(#linear-gradient)"/>
    <ellipse id="Ellipse_54" data-name="Ellipse 54" cx="4.642" cy="2.255" rx="4.642" ry="2.255" transform="translate(89.453 5.416)" fill="none" stroke="#3f3d56" stroke-width="1"/>
    <ellipse id="Ellipse_55" data-name="Ellipse 55" cx="4.642" cy="2.255" rx="4.642" ry="2.255" transform="translate(47.286 23.598)" fill="url(#linear-gradient)"/>
    <ellipse id="Ellipse_56" data-name="Ellipse 56" cx="4.642" cy="2.255" rx="4.642" ry="2.255" transform="translate(46.706 23.211)" fill="none" stroke="#3f3d56" stroke-width="1"/>
    <ellipse id="Ellipse_57" data-name="Ellipse 57" cx="4.642" cy="2.255" rx="4.642" ry="2.255" transform="translate(63.34 22.437)" fill="url(#linear-gradient)"/>
    <ellipse id="Ellipse_58" data-name="Ellipse 58" cx="4.642" cy="2.255" rx="4.642" ry="2.255" transform="translate(62.76 22.05)" fill="none" stroke="#3f3d56" stroke-width="1"/>
    <ellipse id="Ellipse_59" data-name="Ellipse 59" cx="4.642" cy="2.255" rx="4.642" ry="2.255" transform="translate(84.424 24.178)" fill="url(#linear-gradient)"/>
    <ellipse id="Ellipse_60" data-name="Ellipse 60" cx="4.642" cy="2.255" rx="4.642" ry="2.255" transform="translate(83.843 23.791)" fill="none" stroke="#3f3d56" stroke-width="1"/>
    <ellipse id="Ellipse_61" data-name="Ellipse 61" cx="4.642" cy="2.255" rx="4.642" ry="2.255" transform="translate(73.205 24.952)" fill="url(#linear-gradient)"/>
    <ellipse id="Ellipse_62" data-name="Ellipse 62" cx="4.642" cy="2.255" rx="4.642" ry="2.255" transform="translate(72.625 24.565)" fill="none" stroke="#3f3d56" stroke-width="1"/>
    <ellipse id="Ellipse_63" data-name="Ellipse 63" cx="4.642" cy="2.255" rx="4.642" ry="2.255" transform="translate(73.979 5.609)" fill="url(#linear-gradient)"/>
    <ellipse id="Ellipse_64" data-name="Ellipse 64" cx="4.642" cy="2.255" rx="4.642" ry="2.255" transform="translate(73.398 5.222)" fill="none" stroke="#3f3d56" stroke-width="1"/>
    <ellipse id="Ellipse_65" data-name="Ellipse 65" cx="4.642" cy="2.255" rx="4.642" ry="2.255" transform="translate(54.056 17.601)" fill="url(#linear-gradient)"/>
    <ellipse id="Ellipse_66" data-name="Ellipse 66" cx="4.642" cy="2.255" rx="4.642" ry="2.255" transform="translate(53.476 17.215)" fill="none" stroke="#3f3d56" stroke-width="1"/>
    <ellipse id="Ellipse_67" data-name="Ellipse 67" cx="4.642" cy="2.255" rx="4.642" ry="2.255" transform="translate(56.764 26.306)" fill="url(#linear-gradient)"/>
    <ellipse id="Ellipse_68" data-name="Ellipse 68" cx="4.642" cy="2.255" rx="4.642" ry="2.255" transform="translate(56.184 25.919)" fill="none" stroke="#3f3d56" stroke-width="1"/>
    <g id="Group_10317" data-name="Group 10317" transform="translate(58.183 40.805)" opacity="0.3">
      <ellipse id="Ellipse_69" data-name="Ellipse 69" cx="2.432" cy="1.053" rx="2.432" ry="1.053" transform="translate(0.306 4.246) rotate(-60.799)" fill="#57b894"/>
      <ellipse id="Ellipse_70" data-name="Ellipse 70" cx="2.432" cy="1.053" rx="2.432" ry="1.053" transform="translate(0 4.423) rotate(-60.799)" fill="none" stroke="#3f3d56" stroke-width="1"/>
    </g>
    <g id="Group_10318" data-name="Group 10318" transform="translate(81.278 45.211)" opacity="0.3">
      <ellipse id="Ellipse_71" data-name="Ellipse 71" cx="1.053" cy="2.432" rx="1.053" ry="2.432" transform="matrix(0.667, -0.745, 0.745, 0.667, 0.106, 1.907)" fill="#57b894"/>
      <ellipse id="Ellipse_72" data-name="Ellipse 72" cx="1.053" cy="2.432" rx="1.053" ry="2.432" transform="matrix(0.667, -0.745, 0.745, 0.667, 0, 1.57)" fill="none" stroke="#3f3d56" stroke-width="1"/>
    </g>
    <g id="Group_10319" data-name="Group 10319" transform="translate(59.614 33.025)" opacity="0.3">
      <ellipse id="Ellipse_73" data-name="Ellipse 73" cx="1.053" cy="2.432" rx="1.053" ry="2.432" transform="matrix(0.667, -0.745, 0.745, 0.667, 0.106, 1.907)" fill="#57b894"/>
      <ellipse id="Ellipse_74" data-name="Ellipse 74" cx="1.053" cy="2.432" rx="1.053" ry="2.432" transform="matrix(0.667, -0.745, 0.745, 0.667, 0, 1.57)" fill="none" stroke="#3f3d56" stroke-width="1"/>
    </g>
  </g>
</svg>
